<?xml version="1.0" encoding="utf-8"?>
<!-- Generator: Adobe Illustrator 16.0.0, SVG Export Plug-In . SVG Version: 6.00 Build 0)  -->
<!DOCTYPE svg PUBLIC "-//W3C//DTD SVG 1.1//EN" "http://www.w3.org/Graphics/SVG/1.1/DTD/svg11.dtd">
<svg version="1.1" xmlns="http://www.w3.org/2000/svg" xmlns:xlink="http://www.w3.org/1999/xlink" x="0px" y="0px" width="100%"
	  viewBox="0 0 864 864" enable-background="new 0 0 864 864" xml:space="preserve">
<g id="Layer_1">
</g>
<g id="Layer_2">
	<path fill="#D1D3D4" d="M475.637,767.958c-16.551-0.096-38.896-4.029-51.855-22.128l-1.564-0.734
		c-1.737,0.13-3.455,0.194-5.125,0.194c-9.749,0-17.665-2.139-21.72-5.868c-2.043-1.881-3.078-4.141-3.078-6.715
		c0-6.811,3.366-26.527,6.071-42.37c1.318-7.72,2.468-14.441,2.966-18.178l-0.689-1.59c-9.308-6.857-30.91-25.126-49.469-47.839
		c-15.713-19.23-33.459-47.135-29.386-71.429l-1.636-1.083c-3.721,2.197-8.973,3.312-15.627,3.312
		c-7.748,0-16.353-1.435-23.945-2.702c-6.067-1.013-11.252-1.879-15.012-1.879c-1.821,0-3.206,0.205-4.219,0.624l-0.801,0.83
		c-9.292,19.701-39.638,39.144-64.98,48.234c-15.933,5.718-31.891,8.615-47.432,8.615c-17.332,0-33.49-3.58-48.028-10.643
		c-24.377-11.84-46.578-41.133-57.941-76.45c-13.646-42.416-10.103-88.891,9.975-130.88l0.115-0.329l0.035-0.321
		c-0.065-1.641-1.061-4.631-2.649-9.285c-1.58-4.629-3.545-10.384-4.494-15.431c-1.09-5.795-0.604-9.364,1.481-10.911l0.148-0.104
		c0.762-0.508,1.719-0.766,2.843-0.766c5.243,0,13.289,5.288,22.494,11.678c4.517,3.134,8.78,6.094,11.79,7.385
		c3.152,1.352,7.813,1.945,12.747,2.573c9.854,1.256,21.017,2.678,26.032,10.204c0.22,0.327,0.41,0.663,0.557,0.988l0.934,2.054
		l-1.436,1.739c-1.991,2.411-7.269,4.167-20.168,6.709c-6.852,1.35-11.514,2.348-13.916,3.776v2.1l-0.465,1.897
		c-1.104,4.53-1.995,8.106-2.559,9.494c-6.036,14.859-22.066,54.329-5.854,81.597c8.861,14.904,26.094,23.896,51.219,26.728
		c1.479,0.165,2.909,0.25,4.243,0.25c6.228,0,11.163-1.867,14.666-5.549c11.917-12.522,6.625-44.933,0.499-82.461
		c-6.61-40.495-14.104-86.392-3.045-121.146c7.951-24.988,31.834-50.104,65.525-68.906c30.895-17.239,66.584-27.127,97.917-27.127
		c2.218,0,4.435,0.049,6.589,0.146c47.456,2.123,79.013,27.02,88.966,70.143l2.066,0.783
		c28.769-20.532,72.056-31.829,122.044-31.829c1.254,0,2.521,0.007,3.783,0.021c47.473,0.545,96.219,10.938,133.734,28.515
		c37.154,17.405,58.551,39.732,60.303,62.902l1.49,0.3c4.969-9.804,8.908-11.674,13.527-13.087c2.549-0.779,4.951-1.513,7.109-4.75
		c2.391-3.589,4.314-10.053,6.174-16.305c2.037-6.851,3.477-11.21,4.793-13.222l0.857-1.309l1.541-0.271
		c22.736-3.995,33.586-14.805,38.686-23.169l4.135-6.782l2.395,7.574c4.91,15.534,11.135,43.877-2.35,59.158
		c-9.275,10.512-20.809,12.643-31.963,14.703c-11.906,2.197-23.145,4.272-29.361,16.709c-3.553,7.104,0.031,21.562,4.992,41.573
		c11.424,46.057,30.531,123.075-24.279,189.965l-0.363,0.747c-2.195,10.832,6.602,37.98,15.912,66.711
		c15.395,47.503,22.023,72.888,15.57,79.926c-6.051,6.601-31.645,11.209-62.24,11.209c-16.033,0-31.256-1.26-44.025-3.643
		c-14.627-2.729-32.953-8.255-37.186-19.077c-3.465-8.854-5.564-14.185-6.803-17.299c-0.385-0.963-0.688-1.723-0.932-2.323
		l-2.293-1.304l-0.951,1.789l-2.566-0.516c-2.646-0.481-5.488-1.941-8.219-4.22c-6.232-5.201-10.973-13.683-10.838-19.133
		l-1.467-1.751l-37.254-1.241l-1.045,1.836c3.301,5.458,21.443,37.032,9.941,53.132c-7.174,10.045-40.74,25.229-74.982,25.229
		L475.637,767.958z"/>
</g>
<g id="Layer_5">
	<path fill="#939598" d="M800.178,334.125c-8.365,9.483-18.689,11.389-29.619,13.408c-12.125,2.238-24.662,4.553-31.615,18.46
		c-4.107,8.216-0.611,22.308,4.676,43.64c11.154,44.979,29.824,120.263-23.508,185.147l-0.096,0.118l-0.73,1.498l-0.035,0.158
		c-2.564,11.544,5.947,37.803,15.805,68.218c8.346,25.756,22.316,68.865,16.168,75.574c-4.416,4.817-26.592,9.938-58.988,9.938
		c-15.656,0-30.504-1.226-42.932-3.546c-19.215-3.585-31.338-9.507-34.143-16.675c-3.436-8.778-5.516-14.061-6.746-17.146
		c-0.877-2.204-1.316-3.312-1.697-4.062l-0.391,0.197l-0.154-0.089l0.475-0.249c-1.084-2.049-2.627-2.48-3.734-2.48
		c-0.758,0-1.322,0.217-1.594,0.321c-1.078,0.412-1.832,1.024-2.26,1.834c-1.998-0.362-4.254-1.54-6.486-3.404
		c-5.928-4.947-9.926-12.996-9.406-16.618l0.1-0.712l-3.455-4.123l-40.641-1.354l-3.16,5.561l0.666,1.036
		c6.008,9.391,19.596,36.57,10.434,49.395c-5.912,8.278-37.484,23.482-71.33,23.482l-0.643-0.001
		c-15.674-0.091-36.854-3.784-48.754-20.859l-0.213-0.307l-3.271-1.535l-0.363,0.031c-1.813,0.15-3.62,0.226-5.371,0.226
		c-8.637,0-15.771-1.818-19.083-4.865c-1.291-1.189-1.892-2.465-1.892-4.016c0-6.438,3.443-26.608,5.96-41.349
		c1.387-8.117,2.583-15.13,3.035-18.742l0.047-0.378l-1.458-3.369l-0.309-0.224c-8.797-6.398-30.316-24.474-48.796-47.09
		c-15.257-18.672-32.533-45.733-28.202-68.627l0.285-1.507l-5.554-3.677l-1.276,0.852c-3.114,2.076-7.896,3.13-14.21,3.13
		c-7.395,0-15.757-1.397-23.182-2.637c-6.107-1.019-11.382-1.899-15.389-1.899c-2.603,0-4.539,0.363-6.095,1.142l-0.204,0.102
		l-1.666,1.727l-0.093,0.204c-6.495,14.172-30.034,34.603-62.458,46.234c-15.388,5.521-30.781,8.319-45.754,8.319
		c-16.613,0-32.087-3.425-45.99-10.178c-23.288-11.312-44.563-39.501-55.525-73.57c-13.25-41.186-9.776-86.331,9.782-127.124
		l0.265-0.759l0.063-0.279l0.09-0.804c0-2.156-0.965-5.086-2.819-10.517c-1.526-4.472-3.427-10.038-4.319-14.784
		c-1.154-6.135,0.071-7.261,0.083-7.269c0.149-0.101,0.452-0.157,0.831-0.157c4.494,0,13.963,6.572,20.233,10.924
		c4.623,3.209,8.99,6.24,12.302,7.659c3.58,1.535,8.436,2.154,13.578,2.809c8.994,1.146,12.743,0.356,16.805,6.45
		c0.14,0.208,6.668,2.454,6.717,2.562c-1.854,2.247-16.05,2.931-20.904,3.887c-8.872,1.75-15.414,3.807-18.057,6.449v6.448
		c-0.734,2.978-1.99,7.576-2.58,9.029c-6.158,15.162-20.828,56.599-3.869,85.125c9.376,15.769,29.896,22.947,55.944,25.884
		c1.597,0.179,3.145,0.27,4.602,0.27c7.184,0,12.941-2.222,17.111-6.605c13.024-13.685,7.652-46.588,1.433-84.686
		c-6.48-39.697-13.825-84.69-3.136-118.285c7.6-23.884,30.639-48.007,63.211-66.185c30.073-16.781,64.774-26.405,95.206-26.405
		c2.137,0,4.277,0.047,6.363,0.14c45.558,2.038,75.73,26.037,84.963,67.579l0.213,0.959l5.646,2.14l0.798-0.577
		c27.877-20.241,70.319-31.387,119.506-31.387c1.227,0,2.469,0.006,3.703,0.021c46.51,0.532,94.234,10.699,130.936,27.894
		c35.748,16.747,56.234,37.928,57.68,59.64l0.158,2.371l6.838,1.372l1.061-2.123c8.131-8.079,7.959-10.406,11.406-11.46
		c2.725-0.833,6.119-1.869,8.965-6.139c2.662-3.996,10.977-11.117,10.977-17.565c0-3.8,1.305-9.665,2.578-11.608
		c23.994-4.217,34.674-14.504,39.984-23.216C808.244,294.832,812.418,320.255,800.178,334.125z"/>
</g>
<g id="Layer_3">
	<path fill="#58595B" d="M525.109,344.955c11.564,39.642-59.889,138.736-144.455,128.979c-33.534-3.869-37.403-158.644,1.29-181.859
		C402.724,279.606,507.053,283.046,525.109,344.955z"/>
</g>
<g id="Layer_4">
	<path d="M300.661,417.841c-0.441-0.972-6.057,0.626-12.542,3.572c-1.805,0.818-3.479,1.655-4.957,2.457
		c-0.65-2.404-1.7-4.64-3.093-6.626c0.314-0.139,0.629-0.277,0.948-0.422c6.485-2.945,11.385-6.12,10.943-7.094
		c-0.442-0.973-6.058,0.626-12.543,3.571c-0.662,0.301-1.303,0.604-1.928,0.907c-3.835-3.74-9.069-6.053-14.85-6.053
		c-11.754,0-21.282,9.526-21.282,21.281c0,11.754,9.528,21.281,21.282,21.281s21.281-9.527,21.281-21.281
		c0-0.709-0.038-1.408-0.105-2.099c1.778-0.631,3.792-1.443,5.902-2.402C296.204,421.99,301.103,418.814,300.661,417.841z"/>
	<circle fill="#FFFFFF" cx="256.191" cy="425.566" r="3.224"/>
</g>
</svg>
