<?xml version="1.0" standalone="no"?>
<!DOCTYPE svg PUBLIC "-//W3C//DTD SVG 20010904//EN"
 "http://www.w3.org/TR/2001/REC-SVG-20010904/DTD/svg10.dtd">
<svg version="1.0" xmlns="http://www.w3.org/2000/svg"
 width="100%" viewBox="0 0 1280.000000 929.000000"
 preserveAspectRatio="xMidYMid meet">
<metadata>
Created by potrace 1.15, written by Peter Selinger 2001-2017
</metadata>
<g transform="translate(0.000000,929.000000) scale(0.100000,-0.100000)"
fill="#000000" stroke="none">
<path d="M8190 9284 c-244 -27 -390 -57 -541 -110 -276 -96 -504 -227 -760
-436 -53 -43 -99 -78 -103 -78 -4 0 -26 13 -49 29 -179 122 -400 177 -888 221
-123 11 -285 27 -359 35 -315 35 -599 42 -906 25 -1587 -90 -2937 -777 -3726
-1895 -58 -82 -311 -487 -393 -630 -212 -367 -367 -768 -429 -1105 -39 -216
-45 -543 -12 -668 30 -110 100 -192 210 -243 202 -94 465 -35 622 141 26 28
51 49 56 48 5 -2 20 -36 33 -75 81 -240 211 -472 545 -973 241 -361 279 -427
292 -502 5 -34 10 -155 10 -268 0 -238 -15 -366 -91 -795 -58 -328 -77 -450
-91 -600 -31 -331 13 -693 101 -841 47 -79 194 -231 281 -291 129 -89 305
-167 469 -207 182 -45 478 -73 639 -62 52 4 280 11 505 16 513 11 600 24 803
122 87 41 116 62 187 131 76 74 86 88 106 152 14 45 24 106 27 171 8 182 -29
300 -218 694 -66 138 -134 295 -155 360 -113 352 -107 594 18 722 l36 36 53
-13 c29 -8 127 -52 218 -99 183 -93 226 -108 380 -127 122 -16 419 -16 535 -1
44 6 188 27 320 46 132 19 270 37 307 40 l67 6 46 -92 c77 -158 89 -219 89
-458 -1 -193 -3 -217 -38 -405 -71 -383 -77 -421 -83 -545 -7 -152 4 -212 59
-323 60 -121 172 -229 299 -290 206 -99 624 -156 1053 -143 289 8 739 43 811
62 106 28 211 90 300 179 89 89 134 158 173 267 23 63 26 89 26 193 0 96 -4
132 -21 180 -11 33 -55 159 -97 280 -145 414 -193 614 -203 840 -12 283 65
545 214 730 100 123 289 250 492 330 52 20 155 75 229 121 123 76 172 98 172
76 0 -4 -50 -63 -111 -132 -61 -69 -150 -171 -198 -228 -398 -476 -515 -849
-401 -1279 124 -466 345 -831 635 -1048 168 -126 271 -160 480 -159 109 1 157
6 217 22 187 51 334 135 464 266 165 167 246 373 230 582 -15 203 -86 310
-318 482 l-97 72 14 40 c35 98 119 185 321 333 78 56 181 134 229 172 48 39
142 113 209 166 501 399 854 843 1039 1309 189 476 289 1064 273 1615 -29
1071 -431 2101 -1120 2873 -293 328 -749 563 -1382 711 -256 60 -958 176
-1254 207 -136 14 -767 28 -850 18z"/>
</g>
</svg>
