<?xml version="1.0" encoding="utf-8"?>
<!-- Generator: Adobe Illustrator 16.0.0, SVG Export Plug-In . SVG Version: 6.00 Build 0)  -->
<!DOCTYPE svg PUBLIC "-//W3C//DTD SVG 1.1//EN" "http://www.w3.org/Graphics/SVG/1.1/DTD/svg11.dtd" >
	<!ENTITY ns_flows "http://ns.adobe.com/Flows/1.0/">
	<!ENTITY ns_extend "http://ns.adobe.com/Extensibility/1.0/">
	<!ENTITY ns_ai "http://ns.adobe.com/AdobeIllustrator/10.0/">
	<!ENTITY ns_graphs "http://ns.adobe.com/Graphs/1.0/">

	
<svg version="1.1" id="Layer_1" xmlns:x="&ns_extend;" xmlns:i="&ns_ai;" xmlns:graph="&ns_graphs;"
	 xmlns="http://www.w3.org/2000/svg" xmlns:xlink="http://www.w3.org/1999/xlink" xmlns:a="http://ns.adobe.com/AdobeSVGViewerExtensions/3.0/"
	 x="0px" y="0px" width="100%" viewBox="0 0 864 864" enable-background="new 0 0 864 864" xml:space="preserve">
<path fill-rule="evenodd" clip-rule="evenodd" d="M163.092,687.148c19.452-3.714,27.657-11.797,30.007-28.818
	c-4.467,5.637-8.64,11.428-13.361,16.73c-6.192,6.958-14.432,9.652-23.574,9.843c-3.663,0.075-7.329,0.04-10.993,0.067
	c-13.227,0.1-16.354,1.538-24.95,11.919c1.65-7.536,5.585-12.277,11.918-14.34c5.502-1.793,11.316-3.149,17.071-3.546
	c16.405-1.132,27.765-10.377,32.041-27.075c-4.289,4.009-8.209,8.174-12.633,11.708c-9.649,7.71-20.631,9.493-32.418,6.066
	c-10.398-3.021-19.072-0.578-26.555,7.279c-3.514,3.689-7.447,7.1-11.629,10.003c-6.155,4.272-12.537,3.271-18.795-0.526
	c10.354,3.245,17.68-1.211,23.215-9.2c9.362-13.511,21.958-18.511,38.024-15.841c7.805,1.298,15-0.125,21.352-7.182
	c-11.052,2.585-20.958,2.41-30.013-3.532c-13.382-8.781-27.863-2.771-35.044,8.185c-0.591,0.9-1.395,1.661-2.676,3.164
	c5.088-15.999,19.786-24.211,34.495-20.017c2.341,0.666,4.864,1.035,6.958,2.177c13.094,7.145,25.859,0.451,32.777-10.228
	c3.976-6.139,7.69-12.476,12.065-18.316c4.617-6.165,10.746-10.129,18.939-8.466c3.012,0.611,7.35,0.854,4.663,6.364
	c-0.469,0.962,1.183,3.601,2.5,4.67c3.984,3.236,5.127,6.604,3.672,11.857c-3.236,11.689-4.711,23.924-8.593,35.363
	C195.771,682.501,180.281,691.026,163.092,687.148z"/>
<path fill-rule="evenodd" clip-rule="evenodd" d="M264.876,501.968c0.671,11.948,0.232,23.521,2.352,34.604
	c1.286,6.723,5.824,13.238,10.194,18.838c4.167,5.341,10.473,5.926,16.459,2.032c6.586-4.285,10.148-13.038,6.922-18.967
	c-1.657-3.044-5.236-5.243-8.378-7.093c-0.583-0.344-4.779,3.024-4.598,4.287c0.44,3.041,2.487,5.85,4.551,10.133
	c-1.657,4.799-5.794,6.067-10.972,1.646c-5.888-5.029-7.268-15.002-2.833-20.484c3.922-4.849,15.454-6.078,20.622-0.573
	c4.955,5.276,9.833,12.086,11.229,18.938c2.851,14.001,3.626,28.463,4.583,42.78c0.212,3.182-2.358,6.549-3.796,10.209
	c-6.611-2.229-12.581-3.729-17.348,1.925c-5.046,5.984-5.434,12.393-2.979,19.829c1.04,3.149-0.922,7.29-1.753,12.426
	c-4.588-8.216-7.589-14.904-11.771-20.75c-5.335-7.456-14.408-9.591-20.537-5.066c-1.944,1.436-2.168,5.202-3.18,7.902
	c2.297,0.222,4.593,0.441,8.675,0.834c-0.729,2.661-0.899,6.91-3.008,9.683c-1.369,1.799-5.6,1.979-8.482,1.804
	c-1.218-0.075-3.319-2.992-3.229-4.512c0.93-15.747,2.228-31.473,3.526-48.571c9.365,12.376,20.079,18.955,34.997,13.799
	c9.186-3.175,14.863-9.491,17.887-20.012c-4.233,2.311-7.33,4.345-10.685,5.772c-12.862,5.471-25.76,0.158-31.9-13.615
	C252.64,540.057,256.424,520.999,264.876,501.968z"/>
<path fill-rule="evenodd" clip-rule="evenodd" d="M280.744,445.004c14-9.877,29.79-16.6,46.634-19.218
	c15.297-2.378,31.013-2.421,46.56-2.758c24.359-0.527,48.765,0.264,73.085-0.886c12.979-0.615,25.016-6.071,35.313-14.488
	c18.194-14.872,19.929-44.247,3.495-58.849c-10.769-9.569-27.145-11.078-38.695-3.564c-11.793,7.672-18.222,23.25-14.618,35.424
	c4.26,14.392,22.079,19.786,32.827,9.936c5.461-5.005,6.965-12.534,3.846-19.385c-2.47-5.423-6.394-8.968-12.607-7.431
	c-3.193,0.791-5.998,3.156-8.74,4.678c3.71-6.666,9.593-9.373,15.774-7.046c7.01,2.639,12.225,12.478,10.89,20.544
	c-1.568,9.48-8.831,16.676-18.488,18.319c-11.77,2.001-22.812-3.448-28.125-13.878c-11.076-21.744,6.224-52.445,31.176-55.009
	c17.758-1.825,32.604,4.235,42.193,19.348c10.672,16.818,8.86,34.489-0.729,51.245c-9.429,16.474-25.334,23.725-42.992,27.61
	c-22.493,4.95-45.044,2.314-67.71,0.677C350.746,427.449,330.056,421.989,280.744,445.004z"/>
<path fill-rule="evenodd" clip-rule="evenodd" d="M579.642,703.507c10.302,0.727,23.734,12.356,24.312,20.582
	c2.197,31.364,11.669,61.107,19.613,91.196c4.195,15.891,3.526,16.961-12.348,12.731c-6.44-1.716-12.737-4.928-18.335-8.618
	c-7.192-4.742-8.496-11.864-7.421-20.582c1.048-8.489-0.439-17.31-0.986-25.972c-0.383-6.049-1.615-12.104-1.373-18.11
	c0.128-3.18,2.081-6.651,4.097-9.322c6.076-8.059,3.947-16.816-3.241-24.313C580.523,717.515,581.089,710.098,579.642,703.507z"/>
<path fill-rule="evenodd" clip-rule="evenodd" d="M474.842,585.887c-10.583-12.151-21.596-19.687-38.392-7.159
	c0.843-6.241,1.323-9.793,1.873-13.867c-6.918-5.663-7.248-8.401-0.641-14.582c-6.726-7.462-5.234-16.517-4.794-25.542
	c0.408-8.372,0.086-16.78,0.086-26.798c8.821,7.952,17.384,15.673,25.948,23.394c-0.362,0.165-0.723,0.331-1.085,0.497
	c3.623,1.3,7.245,2.6,12.252,4.396c6.975-3.498,15.439-2.048,20.797,5.091c3.933,5.239,3.497,10.305-1.123,14.952
	c-0.569-0.215-1.038-0.242-1.227-0.485c-1.927-2.501-3.631-5.222-5.873-7.388c-0.393-0.379-4.382,1.605-4.341,2.372
	c0.183,3.463,0.161,7.811,2.183,10.105c3.405,3.866,8.301,6.417,13.773,10.396C481.951,565.046,477.282,574.255,474.842,585.887z"/>
<path fill-rule="evenodd" clip-rule="evenodd" d="M211.102,610.627c21.429-17.979,21.724-43.318,24.927-67.575
	c2.741-20.761,5.28-41.594,14.917-60.614c4.662-9.198,10.326-17.68,19.833-22.819c13.546-7.325,30.573-3.236,39.571,9.655
	c9.016,12.917,7.686,28.952-3.194,38.496c-7.733,6.783-18.197,7.466-26.273,1.714c-7.386-5.261-10.197-15.989-6.546-24.982
	c2.53-6.234,8.614-10.338,14.286-9.118c6.014,1.294,8.986,5.184,8.628,12.162c-0.876-1.047-1.543-1.49-1.679-2.061
	c-1.25-5.238-4.628-9.238-9.714-6.949c-3.723,1.676-7.654,6.269-8.531,10.219c-2.225,10.018,3.642,17.993,12.242,18.855
	c10.172,1.019,18.454-5.928,19.583-16.425c1.111-10.337-5.479-21.027-15.419-25.011c-8.438-3.382-19.697-0.693-25.183,8.089
	c-5.593,8.949-10.951,18.721-13.335,28.857c-5.008,21.282-7.901,43.059-11.859,64.596c-2.27,12.356-6.532,23.99-14.834,33.673
	C224.104,606.539,218.991,610.948,211.102,610.627z"/>
<path fill-rule="evenodd" clip-rule="evenodd" d="M242.375,836.341c-9.965-2.458-18.436-3.683-26.222-6.686
	c-9.462-3.649-12.699-13.267-11.66-21.673c2.071-16.743,6.611-33.182,10.209-49.73c0.241-1.108,1.137-2.075,0.853-1.578
	c3.999-1.02,8.16-0.948,8.892-2.498c1.593-3.373,3.146-8.517,1.642-11.236c-3.118-5.638-1.611-10.037,0.307-15.029
	c10.562,4.229,17.012,16.868,14.135,27.285c-1.291,4.677-2.579,9.359-4.076,13.971c-5.479,16.881-4.39,33.47,1.599,50.021
	C239.843,824.132,240.668,829.424,242.375,836.341z"/>
<path fill-rule="evenodd" clip-rule="evenodd" d="M542.106,826.523c-26.185,6.184-45.298-3.693-54.515-28.483
	c-2.92-7.851-5.129-15.968-7.539-23.57c6.256,1.628,11.405,3.584,16.68,4.021c2.007,0.166,5.285-2.778,6.143-5.013
	c0.628-1.637-1.302-4.881-2.966-6.52c-0.885-0.871-3.678-0.056-5.522,0.371c-1.968,0.455-4.529,2.462-5.584,1.802
	c-1.689-1.059-3.183-3.713-3.296-5.772c-0.427-7.729,12.579-16.593,19.817-13.663c1.08,0.438,2.096,1.92,2.457,3.123
	c7.765,25.862,20.207,49.485,34.369,72.301C542.357,825.451,542.136,826.05,542.106,826.523z"/>
<path fill-rule="evenodd" clip-rule="evenodd" d="M243.582,668.714c0,3.797,0.867,8.634-0.155,9.073
	c-3.746,1.61-8.15,2.311-12.235,2.084c-1.097-0.06-2.734-4.61-2.753-7.109c-0.044-6.067,0.388-12.188,1.236-18.2
	c1.046-7.427,4.591-9.842,11.898-8.577c3.343,0.579,6.615,1.616,9.883,2.568c8.276,2.409,16.531,4.889,25.378,7.514
	c-2.545,5.769-6.069,12.434-8.475,19.482c-5.335,15.634-9.954,31.512-15.256,47.158c-0.927,2.732-4.617,7.139-5.569,6.789
	c-3.489-1.28-7.223-3.702-9.143-6.771c-1.155-1.85,0.23-6.113,1.761-8.448c0.716-1.093,4.479-0.188,7.033-0.188
	c2.425-10.487-4.073-15.208-17.565-11.97c-2.435-11.709-2.11-12.199,9.298-14.021c8.982-1.436,12.746-5.335,11.917-12.498
	C250.273,670.748,247.854,668.09,243.582,668.714z"/>
<path fill-rule="evenodd" clip-rule="evenodd" d="M405.254,561.441c2.237,1.423,4.303,3.49,6.746,4.141
	c6.337,1.687,4.554,8.919,8.431,11.762c9.157,6.715,9.45,6.517,26.511,4.552c-10.273,9.532-37.633,15.454-47.086,10.192
	c-19.063-10.614-28.675-29.651-24.443-49.392c1.985-9.26,6.811-16.742,16.465-19.818c6.189-1.973,11.122,0.614,14.775,5.351
	c2.982,3.866,5.884,8.446,2.16,13.246c-1.495,1.927-4.602,2.602-6.975,3.846c-0.933-2.437-1.978-4.838-2.765-7.321
	c-0.606-1.909-0.889-3.921-1.315-5.888c-2.15,1.093-5.208,1.629-6.284,3.382c-3.384,5.508-1.531,10.784,2.383,15.399
	c3.443,4.062,7.051,7.983,10.586,11.967C404.714,562.387,404.984,561.914,405.254,561.441z"/>
<path fill-rule="evenodd" clip-rule="evenodd" d="M421.762,776.328c-0.681-2.108-0.893-3.762-1.725-4.992
	c-0.562-0.829-2.363-1.735-2.968-1.41c-1.011,0.541-1.987,1.977-2.142,3.146c-0.659,4.942,3.561,9.948,9.028,8.842
	c11.188-2.267,17.247,2.996,23.239,11.408c6.596,9.258,15.088,17.145,22.082,26.149c4.361,5.617,3.13,8.545-3.705,10.411
	c-12.023,3.282-23.841,1.725-34.562-4.324c-3.321-1.873-6.283-6.385-7.174-10.209c-3.403-14.611-8.241-28.463-17.276-40.59
	c-3.632-4.874-1.005-8.329,2.641-11.147c3.999-3.094,8.812-4.062,12.467,0.151C424.596,767.14,426.767,771.489,421.762,776.328z"/>
<path fill-rule="evenodd" clip-rule="evenodd" d="M396.221,698.405c-9.594,1.486-18.674,3.165-27.83,4.134
	c-2.511,0.265-5.982-0.858-7.753-2.614c-8.202-8.134-13.06-17.734-13.296-29.803c-0.262-13.434-1.73-26.845-2.681-40.375
	c2.117,1.486,5.44,3.968,8.912,6.222c6.431,4.177,12.603,8.971,19.507,12.15c10.984,5.058,16.302,21.082,9.342,31.002
	c-2.844,4.053-7.135,6.041-11.328,3.138c-2.393-1.655-4.822-6.029-4.24-8.466c0.636-2.663,4.725-4.502,7.628-6.97
	c-2.185-4.438-7.385-4.764-11.364,0.543c-6.085,8.115,0.306,21.826,11.198,23.385c3.757,0.537,7.846,0.284,11.546-0.6
	C395.593,687.826,395.541,687.61,396.221,698.405z"/>
<path fill-rule="evenodd" clip-rule="evenodd" d="M348.209,587.396c-4.514-0.258-8.089,2.077-8.112,7.991
	c-0.016,4.066,1.482,8.119,1.695,12.21c0.216,4.123-0.319,8.285-0.524,12.432c-0.743,0.102-1.487,0.204-2.23,0.307
	c-5.936-9.078-12.205-17.967-17.519-27.396c-1.034-1.832,0.869-6.492,2.801-8.549c2.92-3.109,7.211-4.881,10.638-7.577
	c5.283-4.156,7.539-9.915,5.245-16.192c-1.049-2.87-4.385-6.273-7.158-6.766c-2.862-0.509-6.301,2.224-9.487,3.537
	c0.253,0.674,0.508,1.347,0.761,2.021c1.837,0.912,4.871,1.504,5.221,2.813c0.482,1.804-1.065,4.148-1.743,6.262
	c-2.347-1.02-5.687-1.387-6.861-3.176c-3.892-5.925-1.334-14.292,4.958-18.474c6.782-4.507,15.544-3.301,20.423,2.619
	c2.957,3.588,2.739,10.187,9.542,10.236c0.211,0.001,0.667,0.875,0.589,1.257c-1.688,8.171,6.164,13.363,6.464,20.969
	c0.27,6.843-4.158,14.911-10.18,16.036c-2.427,0.452-5.327-1.637-8.012-2.568C345.745,593.039,346.771,590.689,348.209,587.396z"/>
<path fill-rule="evenodd" clip-rule="evenodd" d="M555.595,598.596c-1.757,4.137-2.872,6.764-3.988,9.391
	c2.884,0.454,6.295,2.1,8.537,1.106c4.326-1.918,3.677-5.735,0.959-9.108c-6.842-8.494-11.983-17.217-11.11-29.116
	c0.372-5.06-4.092-10.362-5.816-15.729c-0.985-3.066-1.916-6.795-1.045-9.674c1.582-5.222,4.528-10.031,8.834-14.978
	c2.148,5.72,4.069,11.537,6.49,17.139c5.588,12.933,11.201,25.863,17.221,38.598c4.794,10.144-4.417,31.504-15.395,33.703
	c-2.675,0.537-6.322-1.125-8.776-2.842c-2.711-1.897-4.537-5.044-6.795-7.605c-4.37-4.961-1.216-8.54,2.353-11.768
	C551.078,594.078,554.076,595.835,555.595,598.596z"/>
<path fill-rule="evenodd" clip-rule="evenodd" d="M474.145,632.229c-3.518-0.282-5.93-0.41-8.323-0.686
	c-2.081-0.239-4.143-0.646-6.876,0.257c2.809,2.146,5.348,4.881,8.482,6.313c6.024,2.753,7.945,7.465,9.212,13.529
	c1.521,7.288,4.307,14.311,6.496,21.291c-11.306-11.664-23.618-22.577-33.51-35.361c-4.611-5.959-4.531-15.548-6.857-24.578
	c2.461,0.639,3.916,1.032,5.38,1.394c5.922,1.461,11.716-1.52,13.209-7.272c0.483-1.863,0.014-4.375-0.949-6.06
	c-0.559-0.979-3.659-1.731-4.391-1.121c-1.408,1.177-2.104,3.338-2.781,5.205c-0.36,0.996-0.063,2.229-0.063,3.544
	c-7.444-2.886-9.728-8.96-6.349-15.795c3.037-6.142,10.843-8.499,16.835-5.085c7.82,4.456,13.42,16.548,12.196,25.58
	C475.044,619.382,474.741,625.447,474.145,632.229z"/>
<path fill-rule="evenodd" clip-rule="evenodd" d="M502.781,482.806c0.7,3.894-0.081,8.384-6.161,9.964
	c-6.169,1.604-12.503-1.671-15.1-7.508c-3.46-7.779-1.172-17.699,5.198-22.525c7.473-5.663,18.793-5.273,25.702,0.886
	c8.631,7.694,11.675,22.81,6.79,33.715c-4.574,10.208-15.267,15.113-28.085,13.728c-12.165-1.314-22.238-6.977-31.602-14.121
	c-13.766-10.502-27.027-21.671-40.917-32c-21.248-15.799-43.917-28.747-71.022-31.675c0.186-0.761,0.371-1.522,0.557-2.284
	c9.783,2.14,19.849,3.434,29.293,6.59c22.209,7.423,41.354,20.508,60.133,34.2c12.98,9.464,25.86,19.319,39.885,26.987
	c6.911,3.778,16.42,4.486,24.564,3.909c10.372-0.734,15.689-13.531,12.111-25.647c-3.247-10.993-11.99-15.877-21.801-12.175
	c-8.237,3.108-12.058,14.548-6.402,21.215c2.181,2.569,7.012,5.004,9.861,4.312C498.771,489.652,500.823,485.099,502.781,482.806z"
	/>
<path fill-rule="evenodd" clip-rule="evenodd" d="M671.733,140.589c-16.359,7.549-26.183-11.405-40.73-6.057
	c-0.356-0.628-0.713-1.257-1.069-1.886c1.806-3.927,3.612-7.854,5.417-11.781c-2.442-0.708-5.447-1.578-8.455-2.448
	c0-0.001-0.131,0.241-0.11,0.47c0.553,6.006,4.233,13.319-3.105,16.996c-9.988,5.004-20.821,2.149-26.244-5.571
	c-5.001-7.123-6.053-14.996-4.139-24.48c2.898,4.819,5.276,8.771,7.283,12.109c2.118-2.232,4.563-5.819,5.368-5.482
	c3.353,1.404,7.671,3.392,8.858,6.299c1.268,3.104-0.593,7.484-1.198,12.167c2.235-1.952,6.775-4.042,7.373-6.944
	c0.639-3.105-2.437-6.975-4.177-11.207c2.338,0.442,5.424,1.026,8.313,1.573c-1.43-13.952,10.044-14.479,25.932-7.616
	C644.277,124.196,649.092,132.033,671.733,140.589z"/>
<path fill-rule="evenodd" clip-rule="evenodd" d="M376.675,495.139c-2.459-3.125-4.959-8.321-9.088-10.76
	c-2.316-1.367-8.153,0.846-10.943,3.186c-5.015,4.206-6.039,10.229-3.613,16.664c3.49,9.264,9.583,13.449,18.233,12.206
	c9.034-1.298,16.963-10.061,17.04-20.061c0.132-17.612-7.657-31.609-21.838-41.625c-22.379-15.807-47.019-16.54-72.535-9.533
	c-0.135-0.683-0.271-1.365-0.406-2.048c9.892-1.908,19.738-5.112,29.684-5.458c21.392-0.745,41.181,4.914,56.744,20.555
	c10.938,10.993,16.915,24.517,15.747,40.282c-0.804,10.875-7.069,18.68-16.89,23.003c-8.129,3.58-16.186,2.88-23.204-3.328
	c-9.033-7.99-11.078-22.16-4.442-31.063c4.415-5.925,12.203-8.569,18.084-6.14C375.153,483.458,377.55,489.04,376.675,495.139z"/>
<path fill-rule="evenodd" clip-rule="evenodd" d="M392.63,654.963c-4.792-11.8-15.523-13.92-25.658-17.241
	c-12.059-3.952-19.033-16.728-15.083-26.889c1.944-5,5.365-7.514,10.828-6.041c5.819,1.568,11.252,8.438,9.828,12.834
	c-0.551,1.702-3.13,4.238-4.211,3.981c-2.616-0.622-4.894-2.664-7.934-4.514c-0.987,3.666,0.062,6.924,4.368,8.963
	c5.709,2.704,13.003,0.658,14.99-4.71c1.586-4.283,1.967-8.999,3.09-13.472c1.635-6.512,5.206-9.062,11.792-8.804
	c0,18.251,0,36.488,0,54.724C393.97,654.185,393.3,654.574,392.63,654.963z"/>
<path fill-rule="evenodd" clip-rule="evenodd" d="M589.266,115.377c-1.947-1.26-3.417-2.211-5.549-3.591c0,10.083,0,19.481,0,28.88
	c-7.505-6.218-5.317-13.838-4.873-22.234c-3.865,5.494-8.052,8.83-13.681,4.937c-4.663-3.225-6.456-7.948-3.842-13.464
	c2.889-6.095,7.933-7.436,15.622-5.177c-0.963-10.334-1.246-21.308-3.378-31.908c-0.731-3.635-6.28-6.169-9.271-9.523
	c-2.19-2.456-4.693-5.264-5.248-8.251c-0.236-1.27,4.615-5.185,6.33-4.737c2.899,0.756,5.776,3.625,7.496,6.344
	c1.954,3.09,2.627,6.99,3.857,10.538c0.97-0.259,1.941-0.518,2.911-0.777c-0.602-3.324-1.497-6.63-1.709-9.979
	c-0.154-2.421-0.044-5.311,1.17-7.209c0.842-1.315,4.344-2.348,5.626-1.639c2.052,1.133,3.712,3.625,4.649,5.908
	c0.654,1.595,0.204,3.926-0.399,5.71C579.958,85.86,579.429,86.583,589.266,115.377z M570.672,111.741
	c0.126-0.054,1.641-0.706,4.824-2.075c-6.506-1.144-10.309,0.122-10.61,4.654c-0.152,2.286,3.061,4.796,4.752,7.205
	c1.582-1.133,4.605-2.502,4.466-3.354C573.743,115.972,571.986,114.001,570.672,111.741z"/>
<path fill-rule="evenodd" clip-rule="evenodd" d="M540.022,440.335c-11.002,7.707-20.708,7.451-25.737-2.084
	c-2.255-4.276-1.834-10.77-0.566-15.73c0.566-2.217,6.664-4.895,9.425-4.178c3.063,0.795,5.825,4.918,7.411,8.219
	c0.688,1.428-1.901,4.43-3.86,5.905c0.505-2.541,2.13-5.642,1.215-7.473c-1.019-2.036-4.85-4.47-6.557-3.924
	c-2.419,0.775-4.995,3.833-5.754,6.426c-1.477,5.042,3.591,11.421,8.91,12.394c5.662,1.035,10.785-2.242,11.957-8.13
	c1.255-6.311,0.823-13.264-5.062-16.383c-4.614-2.446-11.398-3.506-16.296-2.058c-6.773,2.003-13.224,6.255-18.863,10.739
	c-23.368,18.576-49.681,21.507-78.769,13.072c2.408,0.232,4.818,0.445,7.224,0.701c23.361,2.494,45.219-0.64,64.071-16.249
	c5.983-4.955,12.282-9.744,19.064-13.466c8.421-4.621,17.824-6.306,26.349-0.385c8.63,5.994,11.251,14.829,9.094,25.131
	c-0.503,2.4-0.426,4.922-0.615,7.388C541.783,440.277,540.902,440.307,540.022,440.335z"/>
<path fill-rule="evenodd" clip-rule="evenodd" d="M526.183,517.017c-4.272,8.749-5.156,16.342-0.8,25.884
	c2.272,4.979,5.368,10.816,5.756,17.999c0.403,7.476-0.146,16.042,2.391,23.788c0.56,1.708-0.734,4.025-1.217,6.255
	c-9.729-10.74-19.028-20.931-28.189-31.244c-0.839-0.945-1.216-2.724-1.083-4.042C504.703,539.186,510.601,525.163,526.183,517.017z
	"/>
<path fill-rule="evenodd" clip-rule="evenodd" d="M572.631,634.452c2.305-2.867,4.534-5.64,6.764-8.412
	c2.055,2.452,4.108,4.904,7.049,8.413c5.722-0.551,4.112-7.31,5.88-11.781c7.966,8.226,12.189,28.488,8.53,41.745
	c-9.552-6.795-18.887-14.931-31.502-5.954c-2.531-5.272-5.563-10.101-7.044-15.365c-0.639-2.271,1.24-6.287,3.261-7.951
	C567.284,633.733,570.845,634.56,572.631,634.452z"/>
<path fill-rule="evenodd" clip-rule="evenodd" d="M355.051,437.207c34.299,3.401,69.581,34.232,72.36,62.614
	c1.077,10.981-3.932,21.272-12.846,22.362c-4.627,0.565-11.114-1.067-14.142-4.222c-2.838-2.956-3.499-9.476-2.628-13.942
	c0.49-2.513,6.076-5.613,9.251-5.49c2.284,0.088,5.282,4.802,6.209,7.966c0.532,1.815-2.431,4.656-4.309,5.993
	c0.537-2.757,1.855-5.698,1.266-8.188c-0.278-1.172-4.223-1.475-6.507-2.171c-0.62,3.237-2.667,7.214-1.477,9.515
	c1.31,2.531,5.873,5.186,8.516,4.749c3.112-0.516,7.903-4.149,8.064-6.68c0.431-6.788,0.229-14.302-2.297-20.472
	c-10.152-24.796-29.754-39.724-54.28-48.882c-2.046-0.764-4.143-1.392-6.207-2.11C355.83,438.183,355.702,437.917,355.051,437.207z"
	/>
<path fill-rule="evenodd" clip-rule="evenodd" d="M429.008,479.948c8.687,6.553,17.091,13.529,26.13,19.554
	c12.178,8.115,24.868,15.346,40.225,15.627c10.546,0.193,18.789-4.013,25.37-12.084c2.759-3.384,5.334-7.634,8.998-9.368
	c3.974-1.881,9.837-2.923,13.536-1.292c3.3,1.455,6.109,6.881,6.634,10.882c0.434,3.317-2.164,7.656-4.648,10.448
	c-1.123,1.261-6.382,0.915-7.734-0.562c-2.366-2.585-3.168-6.604-4.625-10.023c0.781-0.253,1.562-0.506,2.342-0.759
	c0.124,1.495-0.281,3.391,0.483,4.402c1.476,1.955,4.166,5.103,5.354,4.713c2.269-0.745,5.562-3.867,5.322-5.563
	c-0.456-3.218-2.519-6.867-5.065-8.876c-1.444-1.139-5.6-0.065-7.761,1.266c-2.332,1.436-3.894,4.244-5.563,6.613
	c-11.886,16.853-27.276,21.759-46.694,14.747c-19.31-6.974-34.258-20.19-48.671-34.149c-1.548-1.501-2.974-3.126-4.457-4.694
	C428.458,480.535,428.733,480.241,429.008,479.948z"/>
<path fill-rule="evenodd" clip-rule="evenodd" d="M473.124,704.212c-0.358-5.45,0.145-9.035-1.039-11.929
	c-0.815-1.992-3.969-3.027-6.077-4.49c-0.75,2.525-2.486,5.253-2.017,7.524c0.665,3.211,3.371,5.947,4.452,9.14
	c1.33,3.926,1.886,8.113,3.059,13.483c-15.047-9.296-25.137-38.279-21.999-60.825c8.12,6.374,16.164,12.102,23.503,18.624
	c6.357,5.65,7.957,13.336,5.527,21.45C477.867,699.412,475.561,701.144,473.124,704.212z"/>
<path fill-rule="evenodd" clip-rule="evenodd" d="M511.441,314.44c-11.729-0.27-22.755-2.727-33.158,3.439
	c-1.271,0.754-5.295-1.153-6.555-2.9c-1.352-1.874-2.133-5.704-1.1-7.486c4.379-7.56,9.617-14.616,14.356-21.977
	c3.209-4.984,7.947-2.386,8.583,0.232C496.354,297.214,505.03,304.758,511.441,314.44z"/>
<path fill-rule="evenodd" clip-rule="evenodd" d="M387.003,434.949c16.293,1.256,30.686,7.428,43.987,16.229
	c9.546,6.316,18.58,13.421,28.253,19.521c2.289,1.443,7.121,1.476,9.166-0.034c2.15-1.588,3.592-6.039,3.063-8.804
	c-0.514-2.688-3.718-5.091-6.228-6.966c-0.458-0.342-4.872,2.792-4.674,3.737c0.587,2.797,2.568,5.303,5.155,10.024
	c-3.513-2.479-7.241-3.732-7.82-5.849c-0.817-2.986-0.443-8.196,1.484-9.581c2.751-1.974,7.906-2.745,11.083-1.534
	c6.803,2.594,9.205,12.017,6.118,19.569c-2.984,7.298-10.145,10.518-18.091,7.652c-3.142-1.134-6.201-2.953-8.795-5.076
	C430.523,458.135,412.347,440.874,387.003,434.949z"/>
<path fill-rule="evenodd" clip-rule="evenodd" d="M456.904,409.402c-22.968,12.417-35.235,9.795-53.349-21.039
	c4.031-4.523,8.146-9.139,12.959-14.538C419.557,397.93,434.346,407.903,456.904,409.402z"/>
<path fill-rule="evenodd" clip-rule="evenodd" d="M338.099,500.547c2.523-3.799,4.33-5.635,4.877-7.79
	c0.21-0.829-2.924-3.665-3.711-3.373c-2.445,0.909-6.492,3.115-6.341,4.397c0.561,4.767,1.341,10.377,4.233,13.839
	c8.701,10.411,19.491,18.136,33.621,20.096c-2.604,0.158-5.208,0.317-7.812,0.476c0.062,0.547,0.125,1.093,0.187,1.64
	c5.144-0.724,10.289-1.446,14.663-2.062c-5.926,5.116-13.13,6.15-24.071,1.956c-7.01-2.688-13.603-6.451-20.476-9.523
	c-3.522-1.574-7.297-3.83-10.869-3.68c-3.29,0.139-8.222,2.394-9.235,4.973c-1.233,3.138,0.286,7.851,1.834,11.343
	c0.614,1.387,4.777,2.222,6.786,1.592c1.229-0.387,2.47-4.471,1.789-6.085c-0.596-1.411-3.87-1.692-6.21-3.456
	c2.36,0.189,6.091-0.434,6.79,0.743c1.368,2.304,2.319,6.475,1.094,8.282c-1.472,2.17-5.765,4.209-8.179,3.618
	c-6.661-1.628-8.645-7.25-8.25-13.681c0.414-6.728,3.988-11.544,10.687-11.671c4.836-0.092,9.824,1.99,14.545,3.663
	c3.277,1.161,6.217,3.273,9.686,4.234c-3.637-3.438-7.511-6.66-10.854-10.363c-5.25-5.813-6.252-13.38-2.997-18.904
	c3.28-5.566,10.187-6.799,14.009-2.035c1.397,1.741,2.104,5.209,1.327,7.179C344.515,497.745,341.367,498.572,338.099,500.547z"/>
<path fill-rule="evenodd" clip-rule="evenodd" d="M614.729,97.058c-1.859-1.085-3.296-1.923-4.731-2.761
	c1.896-1.499,3.689-4.074,5.711-4.267c4.098-0.391,6.557,4.709,4.993,9.284c-3.029,8.86-15.594,11.584-23.08,4.873
	c-7.976-7.15-9.43-16.755-9.273-26.724c0.02-1.278,2.202-3.592,3.398-3.601c5.888-0.049,11.78,0.518,19.361,0.968
	c-6.441,8.485-14.918,14.682-6.896,24.118C606.974,102.198,610.685,101.176,614.729,97.058z"/>
<path fill-rule="evenodd" clip-rule="evenodd" d="M433.343,576.114c-15.284-6.214-26.453-30.011-21.082-43.677
	c0.392-0.998,1.362-2.001,2.324-2.504c4.802-2.511,9.69-4.855,14.459-7.214C424.134,540.157,427.032,558.062,433.343,576.114z"/>
<path fill-rule="evenodd" clip-rule="evenodd" d="M492.95,710.731c2.335,9.651,4.083,16.88,5.611,23.193
	c-7.434,4.73-14.302,9.103-21.315,13.565c-1.531-4.932-3.661-10.788-5.04-16.816c-0.448-1.954,0.366-5.234,1.816-6.404
	C479.686,719.699,485.835,715.73,492.95,710.731z"/>
<path fill-rule="evenodd" clip-rule="evenodd" d="M562.253,326.805c-9.806-8.271-18.542-15.64-27.279-23.009
	c0.208-0.679,0.417-1.358,0.625-2.037c6.188-1.241,12.415-2.318,18.557-3.753c16.054-3.75,17.384-2.297,12.521,14.2
	C565.38,316.601,564.021,320.976,562.253,326.805z"/>
<path fill-rule="evenodd" clip-rule="evenodd" d="M522.979,272.171c-7.814,2.375-16.373,5.126-25.043,7.464
	c-1.487,0.401-4.066-0.459-5.034-1.642c-1.151-1.407-1.974-4.082-1.433-5.704c2.298-6.877,5.029-13.62,7.857-20.305
	c1.45-3.425,7.117-3.728,9.556-0.354C514.038,258.763,518.861,266.133,522.979,272.171z"/>
<path fill-rule="evenodd" clip-rule="evenodd" d="M540.944,404.088c-9.135-7.742-17.958-15.22-26.782-22.699
	c0.245-0.7,0.49-1.4,0.736-2.102c6.403-1.19,12.812-2.357,19.207-3.591c1.251-0.241,2.45-1.059,3.677-1.065
	c3.121-0.02,6.37-0.139,9.265,0.76c0.62,0.192,0.364,4.616-0.192,6.921C545.215,389.101,543.224,395.804,540.944,404.088z"/>
<path fill-rule="evenodd" clip-rule="evenodd" d="M657.226,122.019c2.974,5.367,7.805,4.689,11.386,1.658
	c1.309-1.107,0.1-6.562-1.384-9.247c-1.869-3.382-5.196-5.959-7.894-8.884c0.662-0.615,1.322-1.23,1.983-1.845
	c5.987,6.403,12.544,12.393,17.659,19.431c1.826,2.513,1.683,9.182-0.297,11.043c-2.441,2.296-8.976,3.442-11.557,1.751
	c-6.266-4.106-11.754-9.757-16.419-15.681c-1.112-1.413,1.445-7.247,3.826-9.279c1.326-1.134,6.643,0.528,8.53,2.495
	c1.642,1.71,0.993,5.619,1.355,8.558C662.065,122.019,659.717,122.019,657.226,122.019z"/>
<path fill-rule="evenodd" clip-rule="evenodd" d="M550.739,363.543c-9.19-7.861-17.947-15.349-26.702-22.839
	c0.301-0.666,0.604-1.331,0.905-1.997c6.34-1.209,12.693-2.348,19.009-3.671c1.71-0.358,3.314-1.836,4.949-1.807
	c2.769,0.049,5.85,0.333,8.126,1.667c0.928,0.543,0.516,4.19-0.006,6.243C555.246,348.136,553.15,355.053,550.739,363.543z"/>
<path fill-rule="evenodd" clip-rule="evenodd" d="M578.436,250.908c-11.111-7.227-20.732-13.484-30.354-19.741
	c0.207-0.712,0.414-1.425,0.621-2.138c6.137-2.012,12.295-3.965,18.396-6.078c1.479-0.512,2.693-1.9,4.181-2.257
	c2.243-0.539,5.081-1.395,6.798-0.483c1.458,0.774,2.416,3.89,2.332,5.918C580.104,233.611,579.271,241.072,578.436,250.908z"/>
<path fill-rule="evenodd" clip-rule="evenodd" d="M570.741,288.745c-8.774-7.352-17.537-14.694-26.3-22.036
	c0.266-0.713,0.531-1.427,0.798-2.14c6.218-1.165,12.435-2.336,18.656-3.483c0.471-0.086,1.009,0.124,1.455-0.009
	c11.871-3.527,12.674-2.794,10.217,9.458c-1.142,5.697-2.31,11.39-3.526,17.071C571.963,287.968,571.36,288.22,570.741,288.745z"/>
<path fill-rule="evenodd" clip-rule="evenodd" d="M418.386,750.8c-6.145,4.283-11.824,8.243-18.627,12.985
	c-4.762-8.312-9.953-17.375-15.475-27.016c4.851,0.336,8.832,1.431,12.456,0.716C408.793,735.106,415.881,739.817,418.386,750.8z"/>
<path fill-rule="evenodd" clip-rule="evenodd" d="M579.215,210.765c-9.956-6.312-19.914-12.624-29.87-18.936
	c0.184-0.765,0.367-1.529,0.551-2.293c6.134-2.021,12.29-3.975,18.386-6.105c1.736-0.607,3.278-1.759,4.936-2.609
	c3.075-1.577,5.32-0.959,5.727,2.724c0.929,8.417,1.663,16.856,2.477,25.287C580.686,209.476,579.95,210.121,579.215,210.765z"/>
<path fill-rule="evenodd" clip-rule="evenodd" d="M567.332,98.932c-6.574-5.494-18.673,4.668-20.231-9.751
	c-8.857,1.126-12.435-3.091-14.028-17.064C553.782,73.104,565.118,81.446,567.332,98.932z"/>
<path fill-rule="evenodd" clip-rule="evenodd" d="M582.665,143.958c-2.364,10.602-4.385,19.661-6.712,30.095
	c-8.555-7.991-17.004-15.886-25.455-23.781c0.305-0.758,0.609-1.516,0.915-2.274C561.914,146.641,572.414,145.284,582.665,143.958z"
	/>
<path fill-rule="evenodd" clip-rule="evenodd" d="M512.344,376.425c2.156-11.757-0.973-21.209-9.103-29.605
	c-6.562-6.778-6.617-16.983-1.139-22.502c1.695-1.708,4.186-2.624,6.421-3.968c-0.939,4.735-3.017,8.943-2.112,12.363
	c0.955,3.616,4.477,6.754,7.351,9.628c11.048,11.043,11.448,21.938,0.902,33.077C514.252,375.854,513.48,375.948,512.344,376.425z"
	/>
<path fill-rule="evenodd" clip-rule="evenodd" d="M602.569,703.97c-7.249-8.418-12.25-18.978-25.562-16.977
	c-0.558-2.882-0.946-5.761-1.689-8.547c-1.533-5.757,1.987-8.684,6.493-9.194c2.389-0.269,5.165,2.893,7.291,5.383
	C601.362,676.583,605.6,684.744,602.569,703.97z"/>
<path fill-rule="evenodd" clip-rule="evenodd" d="M340.673,470.373c0.132-1.48,0.888-3.338,0.267-4.361
	c-1.252-2.064-3.054-4.818-4.999-5.155c-1.965-0.341-5.966,1.565-6.28,3.072c-0.778,3.723-1.239,8.618,0.61,11.45
	c1.61,2.466,7.174,4.503,9.864,3.549c3.107-1.102,6.315-5.372,7.12-8.819c1.825-7.808-1.914-15.756-9.634-18.421
	c-8.3-2.867-17.358-3.66-26.148-4.924c-3.292-0.474-6.76,0.274-10.144,0.011c12.882-3.23,25.726-4.244,38.127,1.9
	c10.271,5.089,15.615,16.879,10.811,26.164c-2.011,3.885-7.184,8.093-11.224,8.423c-4.123,0.339-10.49-2.868-12.451-6.415
	c-2.133-3.857-1.633-10.407,0.11-14.843c1.969-5.012,7.541-6.043,12.49-3.186C344.099,461.651,344.073,465.913,340.673,470.373z"/>
<path fill-rule="evenodd" clip-rule="evenodd" d="M468.98,445.406c7.75-3.982,14.37-7.82,21.353-10.812
	c4.24-1.818,9.386-3.862,13.477-2.936c3.14,0.71,6.658,5.611,7.403,9.192c0.601,2.878-1.938,7.528-4.521,9.589
	c-1.968,1.57-6.191,0.312-9.411,0.312c0.019-0.874,0.036-1.749,0.054-2.624c0.882,0,2.079,0.366,2.585-0.07
	c1.453-1.254,2.627-2.833,3.911-4.284c-1.8-0.591-3.759-1.96-5.373-1.632c-5.687,1.155-11.179,3.43-16.893,4.226
	C477.522,446.93,473.242,445.793,468.98,445.406z"/>
<path fill-rule="evenodd" clip-rule="evenodd" d="M539.448,203.918c-6.383,1.644-12.86,3.605-19.466,4.915
	c-4.719,0.936-7.646-1.887-7.123-6.463c0.628-5.488,2.079-10.938,3.73-16.231c1.104-3.538,7.664-3.486,10.385,0.146
	C531.468,192.282,535.648,198.515,539.448,203.918z"/>
<path fill-rule="evenodd" clip-rule="evenodd" d="M556.649,130.715c-6.472,0.307-13.442,0.911-20.409,0.87
	c-4.618-0.026-6.562-3.302-5.201-7.452c1.57-4.782,3.697-9.459,6.187-13.84c2.457-4.324,8.059-4.213,10.276,0.203
	C550.971,117.402,553.902,124.577,556.649,130.715z"/>
<path fill-rule="evenodd" clip-rule="evenodd" d="M548.649,164.41c-6.319,1.594-12.901,3.198-19.448,4.928
	c-3.829,1.012-7.658-2.267-7.018-6.674c0.766-5.277,1.855-10.547,3.341-15.664c1.185-4.084,7.716-4.179,10.713-0.141
	C540.606,152.748,544.719,158.827,548.649,164.41z"/>
<path fill-rule="evenodd" clip-rule="evenodd" d="M530.731,238.706c-6.055,1.211-12.562,2.245-18.92,3.866
	c-5.444,1.388-8.598-0.763-7.6-6.234c0.906-4.965,2.264-9.869,3.74-14.703c1.22-3.991,6.955-4.606,9.802-0.905
	C522.354,226.711,526.608,232.958,530.731,238.706z"/>
<path fill-rule="evenodd" clip-rule="evenodd" d="M380.323,480.694c-7.856-1.74-16.416-3.637-24.946-5.527
	c-0.568-6.408-1.285-14.475-1.98-22.319C364.196,454.347,378.53,469.532,380.323,480.694z"/>
<path fill-rule="evenodd" clip-rule="evenodd" d="M384.672,401.446c3.784-2.491,7.188-4.733,10.521-6.929
	c6.493,8.021,12.701,15.689,18.868,23.307C399.055,421.272,394.94,421.221,384.672,401.446z"/>
<path fill-rule="evenodd" clip-rule="evenodd" d="M540.022,440.335c0.88-0.028,1.761-0.058,2.64-0.085
	c-3.444,5.224-6.775,10.527-10.364,15.651c-4.05,5.782-6.525,12.185-2.275,18.294c2.148,3.089,6.915,5.088,10.837,5.864
	c1.655,0.327,5.741-3.623,5.951-5.886c0.307-3.316-1.437-7.126-3.243-10.168c-0.611-1.03-5.202-1.267-5.972-0.289
	c-1.348,1.711-1.669,4.701-1.401,7.039c0.161,1.408,2.245,2.597,3.466,3.883c-0.453,0.393-0.905,0.786-1.357,1.179
	c-1.726-2.073-4.59-4-4.884-6.26c-0.354-2.724,0.706-6.518,2.601-8.367c1.562-1.523,5.51-1.781,7.912-1.033
	c5.902,1.838,9.043,9.171,7.095,15.839c-1.69,5.782-5.769,9.039-11.941,8.802c-6.793-0.261-13.277-6.31-14.089-12.802
	c-0.971-7.767,1.427-14.262,6.771-20.053C534.961,448.481,537.3,444.23,540.022,440.335z"/>
<path fill-rule="evenodd" clip-rule="evenodd" d="M367.537,538.911c0.875,22.85,8.572,40.851,26.317,54.353
	C368.996,588.406,359.064,561.978,367.537,538.911z"/>
<path fill-rule="evenodd" clip-rule="evenodd" d="M647.296,98.919c-7.727,0.799-15.45,1.599-23.954,2.479
	c5.067-10.372-7.43-13.984-11.199-23.107c12.749,6.634,24.312,12.651,35.876,18.668C647.776,97.613,647.536,98.266,647.296,98.919z"
	/>
<path fill-rule="evenodd" clip-rule="evenodd" d="M375.802,406.132c2.561,4.174,4.934,8.043,7.837,12.774
	c-12.02,0-23.154,0-34.288,0c-0.135-0.328-0.27-0.656-0.405-0.983C357.829,414.023,366.711,410.124,375.802,406.132z"/>
<path fill-rule="evenodd" clip-rule="evenodd" d="M397.703,708.25c1.407,1.068,1.972,1.271,2.111,1.637
	c2.39,6.292,4.728,12.604,7.396,19.766c-6.823,0-13.022,0-20.5,0C390.746,721.793,394.17,715.126,397.703,708.25z"/>
<path fill-rule="evenodd" clip-rule="evenodd" d="M263.543,633.712c3.022-2.395,5.714-5.822,9.15-6.921
	c4.321-1.38,8.812,3.547,8.655,8.422c-0.167,5.233-3.519,8.729-8.172,8.167c-3.382-0.41-6.375-4.039-9.541-6.233
	C263.604,636.002,263.574,634.855,263.543,633.712z"/>
<path fill-rule="evenodd" clip-rule="evenodd" d="M380.225,728.026c-4.142-6.685-7.169-11.568-10.965-17.694
	c7.26-1.366,13.62-2.562,21.928-4.125C387.114,714.313,384.046,720.421,380.225,728.026z"/>
<path fill-rule="evenodd" clip-rule="evenodd" d="M327.159,454.154c-3.625,6.49-6.691,11.982-9.707,17.38
	c-3.729-5.227-7.738-10.845-12.401-17.38C312.743,454.154,320.079,454.154,327.159,454.154z"/>
<path fill-rule="evenodd" clip-rule="evenodd" d="M544.426,222.433c-4.905,3.023-7.924,6.356-10.264,5.933
	c-2.591-0.468-5.981-4.11-6.481-6.835c-0.836-4.557,3.075-7.498,7.299-6.685C537.744,215.378,539.973,218.698,544.426,222.433z"/>
<path fill-rule="evenodd" clip-rule="evenodd" d="M526.06,296.841c-2.568,1.75-4.954,4.521-7.747,5.023
	c-4.759,0.856-7.725-2.649-6.611-7c0.687-2.685,4.161-6.178,6.676-6.432c2.346-0.237,5.074,3.327,7.635,5.218
	C526.027,294.714,526.044,295.777,526.06,296.841z"/>
<path fill-rule="evenodd" clip-rule="evenodd" d="M530.046,247.973c1.731,2.658,5.071,5.528,4.755,7.914
	c-0.334,2.529-3.851,5.996-6.502,6.551c-4.404,0.923-7.673-2.598-6.952-6.962c0.457-2.771,3.617-5.098,5.566-7.624
	C527.957,247.893,529.002,247.933,530.046,247.973z"/>
<path fill-rule="evenodd" clip-rule="evenodd" d="M361.853,544.047c-2.64,1.609-5.421,4.654-7.881,4.413
	c-2.328-0.228-5.544-3.594-6.183-6.13c-1.055-4.191,2.021-7.359,6.294-6.712c2.785,0.422,5.223,3.141,7.816,4.83
	C361.884,541.648,361.869,542.848,361.853,544.047z"/>
<path fill-rule="evenodd" clip-rule="evenodd" d="M365.231,594.775c2.68-1.609,5.574-4.735,7.982-4.397
	c2.394,0.335,6.301,4.542,5.948,6.351c-0.522,2.684-3.976,6.182-6.633,6.625c-2.142,0.358-4.954-3.292-7.468-5.164
	C365.117,597.052,365.174,595.913,365.231,594.775z"/>
<path fill-rule="evenodd" clip-rule="evenodd" d="M544.018,531.183c-4.528,2.953-7.275,6.147-9.537,5.836
	c-2.39-0.33-4.316-4.003-6.445-6.215c2.266-2.088,4.386-5.591,6.841-5.845C537.097,524.729,539.684,528.049,544.018,531.183z"/>
<path fill-rule="evenodd" clip-rule="evenodd" d="M538.835,172.987c3.165,3.877,6.548,6.279,6.257,8.088
	c-0.395,2.438-3.617,4.419-5.627,6.595c-1.968-1.931-5.201-3.667-5.537-5.848C533.61,179.751,536.327,177.216,538.835,172.987z"/>
<path fill-rule="evenodd" clip-rule="evenodd" d="M576.849,615.01c2.008-4.594,4.015-9.188,6.751-15.447
	c1.831,4.756,5.158,9.145,4.145,11.985c-0.983,2.756-6.423,3.921-9.905,5.786C577.509,616.56,577.179,615.784,576.849,615.01z"/>
<path fill-rule="evenodd" clip-rule="evenodd" d="M345.64,533.211c-3.618,2.949-5.933,6.135-7.487,5.799
	c-2.324-0.503-4.112-3.481-6.129-5.408c1.82-1.846,3.455-4.865,5.514-5.189C339.409,528.117,341.742,530.753,345.64,533.211z"/>
<path fill-rule="evenodd" clip-rule="evenodd" d="M589.413,123.631c3.022,3.835,6.043,7.67,10.584,13.431
	c-5.334,0-11.171,0.829-11.49-0.146c-1.287-3.938-0.873-8.433-1.087-12.722C588.084,124.007,588.748,123.819,589.413,123.631z"/>
<path fill-rule="evenodd" clip-rule="evenodd" d="M551.007,141.811c-3.591,2.9-5.912,6.092-7.536,5.77
	c-2.268-0.45-5.045-3.279-5.59-5.569c-0.318-1.343,3.1-4.812,5.162-5.116C544.917,136.619,547.232,139.329,551.007,141.811z"/>
<path fill-rule="evenodd" clip-rule="evenodd" d="M490.273,371.514c-3.231,2.224-5.179,4.589-7.103,4.571
	c-1.597-0.016-3.166-2.839-4.748-4.417c1.732-1.663,3.255-4.203,5.269-4.684C485.059,366.659,487.116,369.22,490.273,371.514z"/>
<path fill-rule="evenodd" clip-rule="evenodd" d="M485.202,448.072c2.036,3.688,4.17,5.839,3.989,7.772
	c-0.143,1.526-3.229,3.969-4.832,3.839c-1.669-0.135-4.445-2.946-4.354-4.442C480.125,453.282,482.581,451.466,485.202,448.072z"/>
<path fill-rule="evenodd" clip-rule="evenodd" d="M471.441,321.182c-3.248,1.949-5.263,4.094-7.163,3.996
	c-1.48-0.077-4.252-3.406-3.909-4.468c0.638-1.972,2.939-4.219,4.92-4.651C466.544,315.784,468.47,318.583,471.441,321.182z"/>
<path fill-rule="evenodd" clip-rule="evenodd" d="M496.341,325.543c-3.333,2.394-5.321,4.854-6.655,4.539
	c-1.972-0.466-3.479-2.901-5.184-4.499c1.525-1.519,2.992-4.175,4.592-4.258C490.939,321.23,492.902,323.405,496.341,325.543z"/>
<path fill-rule="evenodd" clip-rule="evenodd" d="M517.903,448.344c2.304,2.724,5.168,4.851,4.817,5.972
	c-0.618,1.971-3.01,4.124-5.041,4.612c-1.071,0.258-3.998-2.741-4.156-4.448C513.378,452.904,515.813,451.092,517.903,448.344z"/>
<path fill-rule="evenodd" clip-rule="evenodd" d="M456.771,450.794c-3.924,2.141-6.036,4.199-8.022,4.084
	c-1.531-0.088-4.116-2.982-4.021-4.489c0.104-1.634,2.782-4.352,4.314-4.336C451.031,446.073,452.997,448.325,456.771,450.794z"/>
<path fill-rule="evenodd" clip-rule="evenodd" d="M404.593,478.871c2.368,2.775,5.15,4.726,4.871,6.013
	c-0.427,1.978-2.96,3.499-4.6,5.213c-1.503-1.55-4.025-2.986-4.217-4.685C400.461,483.767,402.673,481.85,404.593,478.871z"/>
<path fill-rule="evenodd" clip-rule="evenodd" d="M490.215,385.336c-2.904,2.239-4.856,4.787-6.139,4.486
	c-1.928-0.453-3.387-2.902-5.045-4.501c1.568-1.453,3.026-3.881,4.736-4.074C485.343,381.069,487.189,383.293,490.215,385.336z"/>
<path fill-rule="evenodd" clip-rule="evenodd" d="M481.038,487.506c-2.743,2.367-4.583,5.093-5.969,4.879
	c-1.982-0.308-3.633-2.763-5.426-4.3c1.533-1.513,2.936-4.03,4.638-4.254C475.963,483.609,477.95,485.706,481.038,487.506z"/>
<path fill-rule="evenodd" clip-rule="evenodd" d="M476.68,351.167c2.079,3.14,4.243,4.967,4.11,6.609
	c-0.138,1.698-2.504,3.215-3.896,4.812c-1.576-1.637-4.049-3.088-4.438-4.971C472.164,356.206,474.549,354.239,476.68,351.167z"/>
<path fill-rule="evenodd" clip-rule="evenodd" d="M548.707,587.907c-2.853,1.637-4.661,3.519-6.031,3.241
	c-1.618-0.328-2.858-2.522-4.263-3.907c1.646-1.447,3.118-3.586,5.01-4.063C544.433,582.922,546.167,585.531,548.707,587.907z"/>
<path fill-rule="evenodd" clip-rule="evenodd" d="M499.774,526.706c2.193,2.444,4.68,4.058,4.507,5.301
	c-0.244,1.744-2.229,4.021-3.923,4.515c-1.134,0.33-4.356-2.077-4.327-3.201C496.078,531.453,497.986,529.632,499.774,526.706z"/>
<path fill-rule="evenodd" clip-rule="evenodd" d="M458.638,352.544c2.811-2.134,4.693-4.547,5.9-4.247
	c1.771,0.441,3.057,2.823,4.549,4.378c-1.475,1.267-2.88,3.425-4.444,3.547C463.123,356.342,461.439,354.374,458.638,352.544z"/>
<path fill-rule="evenodd" clip-rule="evenodd" d="M327.367,503.769c-3.038,1.966-4.805,3.996-6.489,3.929
	c-1.409-0.057-4.029-2.863-3.786-3.918c0.422-1.836,2.461-4.246,4.153-4.547C322.614,498.989,324.471,501.496,327.367,503.769z"/>
<path fill-rule="evenodd" clip-rule="evenodd" d="M482.874,397.127c-2.591,2.172-4.169,4.488-5.509,4.357
	c-1.556-0.15-3.965-2.39-4.042-3.827c-0.075-1.408,2.133-3.839,3.682-4.158C478.323,393.228,480.128,395.321,482.874,397.127z"/>
<path fill-rule="evenodd" clip-rule="evenodd" d="M490.144,703.828c-2.401,2.075-4.198,4.552-5.167,4.263
	c-1.715-0.515-3.714-2.55-4.059-4.259c-0.217-1.077,2.246-3.652,3.715-3.83C485.993,699.838,487.631,701.971,490.144,703.828z"/>
</svg>
