<?xml version="1.0" encoding="utf-8"?>
<!-- Generator: Adobe Illustrator 15.0.0, SVG Export Plug-In . SVG Version: 6.00 Build 0)  -->
<!DOCTYPE svg PUBLIC "-//W3C//DTD SVG 1.1//EN" "http://www.w3.org/Graphics/SVG/1.1/DTD/svg11.dtd">
<svg version="1.1"
	 id="Layer_1" xmlns:rdf="http://www.w3.org/1999/02/22-rdf-syntax-ns#" xmlns:cc="http://creativecommons.org/ns#" xmlns:dc="http://purl.org/dc/elements/1.1/" sodipodi:docname="Colorful_Animal_Giraffe.svg" inkscape:version="0.48.1 " xmlns:svg="http://www.w3.org/2000/svg" xmlns:sodipodi="http://sodipodi.sourceforge.net/DTD/sodipodi-0.dtd" xmlns:inkscape="http://www.inkscape.org/namespaces/inkscape"
	 xmlns="http://www.w3.org/2000/svg" xmlns:xlink="http://www.w3.org/1999/xlink" x="0px" y="0px" width="300px" height="300px"
	 viewBox="0 0 300 300" enable-background="new 0 0 300 300" xml:space="preserve">
<sodipodi:namedview  id="namedview767" inkscape:window-maximized="0" inkscape:window-width="300" inkscape:window-y="47" inkscape:window-x="300" inkscape:window-height="300" inkscape:pageopacity="0" inkscape:current-layer="Layer_1" inkscape:pageshadow="2" guidetolerance="10" gridtolerance="10" objecttolerance="10" showgrid="false" bordercolor="#666666" borderopacity="1" inkscape:cx="341.45788" pagecolor="#ffffff" inkscape:cy="1005.0188" inkscape:zoom="0.57157798">
	</sodipodi:namedview>
<g id="g265" transform="matrix(4.3245,0,0,4.3245,-0.90606267,-1276.8431)">
	<path id="path267" inkscape:connector-curvature="0" fill="#FFFFFF" stroke="#231F20" stroke-width="2" stroke-miterlimit="10" d="
		M214.829,326.863c-2.01-1.344-4.076-2.474-6.151-3.395c9.16-3.958,7.126-15.004,7.126-15.004
		c-8.324-2.214-13.541,6.881-15.878,12.379c-0.5-0.079-0.995-0.142-1.488-0.195l2.282-15.063c0,0,0.829-0.147,1.692-3.087
		c0.954-3.257-4.317-4.715-7.397-2.249c-3.082,2.466,1.486,5.654,1.486,5.654l-0.808,14.585c-2.082-0.012-4.057,0.234-5.872,0.729
		l-1.97-14.541c0,0,0.754-0.383,0.754-3.451c0-3.398-5.461-3.261-7.721,0c-2.259,3.26,3.013,4.986,3.013,4.986l3.266,13.967
		c-0.154,0.071-0.308,0.144-0.457,0.219c-2.552-4.776-7.947-12.108-16.397-10.254c0,0-1.315,5.907,2.792,10.091l-0.663,3.051
		l4.181,2.572l-4.824-0.643l0.322,4.824h4.502l-4.502,1.93l-0.322,5.467l4.824-0.965l-4.502,2.895v5.145l2.733-0.804l-3.055,3.055
		l-0.321,5.146l2.894,0.321l-2.573,1.286l-0.321,5.146l2.572-0.322l-2.572,1.93l-0.805,5.789l2.09,0.643l-1.929,0.805l-0.321,8.04
		l2.412-0.482l-2.573,2.251v6.432l1.286,0.482l-0.804,0.804l-0.966,7.396l1.93,0.644l-1.607,0.482c0,0-0.797,15.926-1.718,27.773
		c-3.186,17.893-7.019,34.415-11.447,44.815l-58.552,2.987c-0.604-0.095-1.199-0.163-1.79-0.218
		c-0.18-0.017-0.357-0.027-0.536-0.041c-0.423-0.03-0.843-0.052-1.258-0.063c-0.184-0.005-0.368-0.01-0.55-0.011
		c-0.473-0.003-0.941,0.007-1.404,0.03c-0.098,0.005-0.197,0.005-0.293,0.011c-0.56,0.035-1.112,0.09-1.656,0.162
		c-0.128,0.018-0.253,0.041-0.381,0.06c-0.421,0.063-0.837,0.137-1.249,0.222c-0.154,0.032-0.306,0.065-0.457,0.1
		c-0.419,0.096-0.833,0.204-1.24,0.323c-0.104,0.03-0.209,0.058-0.312,0.089c-0.52,0.159-1.03,0.336-1.53,0.534
		c-0.033,0.013-0.063,0.029-0.096,0.041c-0.459,0.184-0.909,0.384-1.352,0.599c-0.104,0.05-0.208,0.103-0.312,0.156
		c-0.393,0.198-0.778,0.408-1.156,0.629c-0.081,0.047-0.162,0.093-0.243,0.141c-0.922,0.558-1.8,1.186-2.631,1.88
		c-0.052,0.043-0.102,0.088-0.153,0.132c-0.368,0.313-0.726,0.639-1.075,0.979c-0.054,0.053-0.109,0.105-0.163,0.159
		c-0.792,0.787-1.536,1.639-2.224,2.557c-0.004,0.004-0.007,0.009-0.011,0.014c-0.332,0.443-0.648,0.903-0.955,1.375
		c-0.037,0.058-0.074,0.115-0.11,0.173c-0.302,0.474-0.593,0.959-0.869,1.461c-0.003,0.006-0.007,0.01-0.009,0.016
		c-10.622,16.404-20.113,33.939-39.479,41.6l-0.169-0.385l-7.213-1.955l-0.2,3.138l2.488,0.484l-3.33,1.195l0.082,0.968l0.47,1.272
		l3.228-1.001l-3.336,1.477l2.702,2.835l2.78-3.156l-1.277,2.029l2.855,1.729l2.23-4.598c0.104-0.037,0.203-0.065,0.311-0.118
		c16.232-6.653,24.303-16.079,33.437-29.83c0.22,0.023,0.446,0.065,0.455,1.428c0,10.861,5.037,20.54,12.895,26.847
		c-1.131,28.096-3.801,87.286-3.888,89.202h-0.003l-0.161,3.215l14.312-0.053L93,615.802h-0.015
		c-4.134-11.585-2.6-59.394-1.472-84.339c2.333,0.986,4.799,1.712,7.361,2.165c1.691,28.121,2.552,81.674,2.58,83.461l0,0v0.002
		c0,0.03,0,0.046,0,0.046h0.003l0.226,2.9l11.899-0.858c0,0-0.429-3.271-0.644-3.377l-0.02,0.002
		c-4.853-10.539-6.278-55.904-6.696-81.639h57.852c1.783,0,3.472-0.136,5.069-0.398c-1.054,28.13-3.383,84.058-3.459,85.895h-0.003
		l-0.562,3.135l13.427-0.371l-0.644-2.764h-0.014c-4.06-12.33-2.078-66.507-1.081-88.442c1.608-0.857,3.08-1.882,4.411-3.064
		c1.622,25.882,2.448,86.989,2.474,88.934l0,0l-0.242,3.295l10.855-0.161l-0.965-4.422l-0.017,0.002
		c-5.092-13.163-5.69-80.659-5.762-96.367c2.607-5.579,3.85-12.362,3.85-19.684c-0.002-0.014-0.004-0.028-0.006-0.043l0.006,0.003
		c-0.009-0.042-0.017-0.086-0.025-0.13c-0.353-2.401-0.729-4.653-1.139-6.762c-5.378-39.046,2.673-111.27,5.531-134.443
		c12.361,7.568,26.352,7.292,31.795-0.851C233.223,349.075,227.518,335.346,214.829,326.863L214.829,326.863z"/>
	<g id="g269">
		<g id="g271">
			
				<path id="path273" inkscape:connector-curvature="0" fill="#FFFFFF" stroke="#231F20" stroke-width="2" stroke-miterlimit="10" d="
				M170.186,395.557c0,0-0.797,15.926-1.718,27.773c6.877-38.621,10.739-83.64,11.051-87.352c-0.323-3.357,0.333-6.52,2.102-9.166
				c0.165-0.245,0.337-0.482,0.517-0.714c-4.425-0.534-7.245-2.035-9.039-3.862l-0.663,3.051l4.181,2.572l-4.824-0.643l0.322,4.825
				h4.502l-4.502,1.929l-0.322,5.467l4.824-0.965l-4.502,2.895v5.145l2.733-0.804l-3.055,3.055l-0.321,5.146l2.894,0.321
				l-2.573,1.286l-0.321,5.146l2.572-0.322l-2.572,1.93l-0.805,5.789l2.09,0.643l-1.929,0.804l-0.321,8.04l2.412-0.482l-2.573,2.251
				v6.432l1.286,0.482l-0.804,0.804l-0.966,7.396l1.93,0.644L170.186,395.557L170.186,395.557z"/>
		</g>
		<g id="g275">
			
				<path id="path277" inkscape:connector-curvature="0" fill="#FFFFFF" stroke="#231F20" stroke-width="2" stroke-miterlimit="10" d="
				M143.139,487.73c-6.557,7.383-7.801,16.981-2.78,21.44c5.021,4.459,14.407,2.087,20.962-5.295
				c6.558-7.383,7.802-16.983,2.781-21.442C159.081,477.976,149.696,480.345,143.139,487.73L143.139,487.73z"/>
		</g>
		<g id="g279">
			
				<path id="path281" inkscape:connector-curvature="0" fill="#FFFFFF" stroke="#231F20" stroke-width="2" stroke-miterlimit="10" d="
				M187.57,521.211c-0.003-0.646-0.006-1.242-0.009-1.773c2.607-5.579,3.85-12.362,3.85-19.684
				c-0.002-0.014-0.004-0.028-0.006-0.043l0.006,0.003c-0.009-0.042-0.017-0.086-0.025-0.13c-0.353-2.401-0.729-4.653-1.139-6.762
				c-0.075-0.546-0.146-1.101-0.217-1.659c-0.535-0.045-1.076-0.057-1.621,0.004c-6.178,0.69-10.418,8.119-9.469,16.592
				C179.662,514.221,183.195,519.411,187.57,521.211L187.57,521.211z"/>
		</g>
		<g id="g283">
			
				<path id="path285" inkscape:connector-curvature="0" fill="#FFFFFF" stroke="#231F20" stroke-width="2" stroke-miterlimit="10" d="
				M188.619,447.092c0.167-6.265,0.441-12.623,0.79-18.932c-0.605-0.141-1.227-0.193-1.857-0.122
				c-3.932,0.44-6.643,5.062-6.054,10.323C182.034,443.143,185.11,446.794,188.619,447.092L188.619,447.092z"/>
		</g>
		<g id="g287">
			
				<path id="path289" inkscape:connector-curvature="0" fill="#FFFFFF" stroke="#231F20" stroke-width="2" stroke-miterlimit="10" d="
				M169.843,458.672c5.348-6.022,6.237-13.964,1.986-17.74c-1.701-1.51-3.97-2.11-6.418-1.919
				c-2.123,9.885-4.468,18.778-7.027,25.686C162.181,464.57,166.49,462.447,169.843,458.672z"/>
		</g>
		<g id="g291">
			
				<path id="path293" inkscape:connector-curvature="0" fill="#FFFFFF" stroke="#231F20" stroke-width="2" stroke-miterlimit="10" d="
				M116.157,483.997c8.703,0,15.758-4.032,15.758-9.004c0-2.031-1.19-3.897-3.174-5.404l-26.65,1.36
				c-1.074,1.217-1.693,2.587-1.693,4.044C100.398,479.965,107.453,483.997,116.157,483.997z"/>
		</g>
		<g id="g295">
			
				<path id="path297" inkscape:connector-curvature="0" fill="#FFFFFF" stroke="#231F20" stroke-width="2" stroke-miterlimit="10" d="
				M129.157,516.456c-6.106-5.95-14.573-7.164-18.911-2.71c-4.339,4.452-2.905,12.884,3.201,18.834
				c0.594,0.578,1.215,1.098,1.848,1.586h17.966C136.431,529.523,134.785,521.939,129.157,516.456L129.157,516.456z"/>
		</g>
		<g id="g299">
			
				<path id="path301" inkscape:connector-curvature="0" fill="#FFFFFF" stroke="#231F20" stroke-width="2" stroke-miterlimit="10" d="
				M82.815,526.117c5.285-1.686,8.73-8.517,7.866-16.232c-0.948-8.472-6.725-14.779-12.903-14.088
				c-3.003,0.335-5.54,2.272-7.254,5.136C70.866,511.045,75.569,520.041,82.815,526.117z"/>
		</g>
		<g id="g303">
			
				<path id="path305" inkscape:connector-curvature="0" fill="#FFFFFF" stroke="#231F20" stroke-width="2" stroke-miterlimit="10" d="
				M174.936,379.441c-0.807,6.534-1.714,13.435-2.722,20.436c1.122,1.115,2.394,1.701,3.678,1.557
				c3.383-0.379,5.569-5.649,4.883-11.771C180.195,384.472,177.733,380.347,174.936,379.441L174.936,379.441z"/>
		</g>
		<g id="g307">
			
				<path id="path309" inkscape:connector-curvature="0" fill="#FFFFFF" stroke="#231F20" stroke-width="2" stroke-miterlimit="10" d="
				M210.851,361.938c-0.316-0.004-2.951-0.057-5.78-1.411l0,0c-2.917-1.383-6.041-4.262-6.75-9.749l0,0
				c-0.047-0.352,0.2-0.675,0.552-0.721l0,0c0.352-0.046,0.675,0.202,0.722,0.553l0,0c0.681,5.054,3.399,7.475,6.033,8.757l0,0
				c2.633,1.269,5.184,1.287,5.246,1.284l0,0c0.039,0.001,0.064,0.003,0.084,0.006l0,0l0,0c0.352,0.044,0.603,0.366,0.558,0.718l0,0
				c-0.041,0.325-0.318,0.563-0.637,0.563l0,0C210.87,361.938,210.859,361.938,210.851,361.938L210.851,361.938L210.851,361.938z"/>
		</g>
		<g id="g311">
			
				<path id="path313" inkscape:connector-curvature="0" fill="#FFFFFF" stroke="#231F20" stroke-width="2" stroke-miterlimit="10" d="
				M26.553,526.719l3.33-1.196l-2.488-0.483l0.2-3.139l7.213,1.954l1.728,3.907l-2.479,5.11l-2.855-1.729l1.277-2.028l-2.78,3.156
				l-2.702-2.835l3.336-1.478l-3.228,1.001l-0.47-1.272L26.553,526.719L26.553,526.719z M205.059,329.269
				c0.325,1.562,1.448,2.652,2.506,2.431c1.058-0.222,1.652-1.667,1.328-3.23c-0.326-1.563-1.447-2.651-2.507-2.431
				C205.327,326.26,204.733,327.707,205.059,329.269z M196.403,330.893c0.72,1.47,2.13,2.257,3.149,1.759
				c1.019-0.5,1.262-2.096,0.542-3.564c-0.721-1.472-2.13-2.258-3.148-1.761C195.927,327.828,195.683,329.422,196.403,330.893
				L196.403,330.893z M225.986,349.323c0.2,0.962,0.922,1.625,1.611,1.482c0.69-0.144,1.087-1.04,0.888-2.001
				c-0.201-0.962-0.922-1.625-1.613-1.482C226.183,347.466,225.786,348.362,225.986,349.323L225.986,349.323z M220.445,350.569
				c0.438,0.894,1.25,1.396,1.813,1.121c0.564-0.276,0.666-1.225,0.229-2.119c-0.438-0.895-1.25-1.396-1.813-1.122
				C220.111,348.727,220.008,349.674,220.445,350.569z M183.692,617.09l-0.242,3.296l10.855-0.161l-0.965-4.422L183.692,617.09z
				 M165.682,619.663l-0.563,3.135l13.427-0.371l-0.644-2.764H165.682L165.682,619.663L165.682,619.663z M101.454,617.09l0.23,2.949
				l11.899-0.858c0,0-0.429-3.27-0.643-3.377L101.454,617.09L101.454,617.09z M93.001,615.803H79.494l-0.161,3.214l14.312-0.052
				L93.001,615.803L93.001,615.803z"/>
		</g>
	</g>
</g>
</svg>
