<?xml version="1.0" encoding="UTF-8" standalone="no"?>
<!-- Created with Inkscape (http://www.inkscape.org/) -->

<svg
   xmlns:svg="http://www.w3.org/2000/svg"
   xmlns="http://www.w3.org/2000/svg"
   xmlns:xlink="http://www.w3.org/1999/xlink"
   version="1.1"
   size="50%"
   width="196.23866"
   height="524.45734"
   id="svg2952">
  <defs
     id="defs2954">
    <linearGradient
       x1="207.16951"
       y1="193.07915"
       x2="283.05319"
       y2="236.201"
       id="linearGradient4255"
       xlink:href="#linearGradient3808-9-7"
       gradientUnits="userSpaceOnUse" />
    <linearGradient
       id="linearGradient3808-9-7">
      <stop
         id="stop3810-3-4"
         style="stop-color:#ff6600;stop-opacity:1"
         offset="0" />
      <stop
         id="stop3812-8-1"
         style="stop-color:#ff4404;stop-opacity:1"
         offset="1" />
    </linearGradient>
    <linearGradient
       x1="207.16951"
       y1="193.07915"
       x2="247.61182"
       y2="586.75739"
       id="linearGradient4257"
       xlink:href="#linearGradient3808"
       gradientUnits="userSpaceOnUse" />
    <linearGradient
       id="linearGradient3808">
      <stop
         id="stop3810"
         style="stop-color:#ff6600;stop-opacity:1"
         offset="0" />
      <stop
         id="stop3812"
         style="stop-color:#ff4404;stop-opacity:1"
         offset="1" />
    </linearGradient>
    <filter
       x="-0.064612925"
       y="-0.20950218"
       width="1.1292259"
       height="1.4190044"
       color-interpolation-filters="sRGB"
       id="filter3804">
      <feGaussianBlur
         id="feGaussianBlur3806"
         stdDeviation="3.4081635" />
    </filter>
  </defs>
  <g
     transform="translate(-79.023523,-198.70495)"
     id="layer1">
    <g
       transform="translate(-61.21976,68.017574)"
       id="g4145">
      <g
         id="g4030">
        <path
           d="m 317.1875,184.1875 c -1.71358,0.0863 -3.70364,0.53814 -6.03125,1.53125 -7.44835,3.17797 -17.90148,8.13692 -28.03125,6.25 -10.12977,-1.88691 -10.22246,6.84825 -6.25,12.90625 3.97245,6.058 11.51112,6.65625 11.3125,6.65625 8.44147,0.39724 14.2214,2.07495 16.40625,2.96875 2.18485,0.8938 7.75238,4.27807 14.40625,-0.6875 6.65386,-4.96557 10.70815,-7.83262 13.6875,-8.03125 2.97934,-0.19862 3.38057,-3.29846 3.28125,-5.78125 -0.0993,-2.48279 -8.94014,-12.49576 -11.125,-13.6875 -1.50208,-0.81932 -3.88637,-2.31489 -7.65625,-2.125 z m -147.34375,0.59375 c -0.38803,-0.0161 -0.765,-0.006 -1.125,0.0312 -5.76007,0.59587 -11.01721,1.88877 -13.5,3.875 -2.48278,1.98622 -13.61176,10.32204 -14.40625,13.5 -0.79449,3.17797 5.46583,6.36387 7.75,6.5625 2.28416,0.19862 7.56515,4.28046 9.75,5.96875 2.18485,1.6883 6.35196,2.56806 8.4375,2.46875 2.08554,-0.0993 9.43803,-4.35964 12.21875,-5.75 2.78072,-1.39036 7.33183,-2.1875 9.21875,-2.1875 1.88692,0 9.15757,-0.006 10.25,0.0937 1.09242,0.0993 2.5625,-19.35276 2.5625,-19.75 0,-0.39725 -4.75556,0.6875 -4.65625,0.6875 -8.04423,1.58898 -9.32839,0.97987 -10.71875,0.78125 -1.30346,-0.18621 -9.96077,-6.04049 -15.78125,-6.28125 z"
           id="path2833"
           style="color:#000000;fill:url(#linearGradient4255);fill-opacity:1;fill-rule:nonzero;stroke:#000000;stroke-width:1px;stroke-linecap:butt;stroke-linejoin:miter;stroke-miterlimit:4;stroke-opacity:1;stroke-dasharray:none;stroke-dashoffset:0;marker:none;visibility:visible;display:inline;overflow:visible;enable-background:accumulate" />
        <path
           d="m 294.77766,201.91634 c 7.65439,1.68537 8.77797,0.2809 14.81722,-3.16007 6.03924,-3.44096 7.51394,-3.58141 9.05887,-1.68537 m -135.11058,1.89604 c -3.37074,2.52806 -0.98314,3.79209 -11.37626,-0.28089 -10.39312,-4.07298 -9.83133,-5.33701 -12.21894,-1.54493"
           id="path3779"
           style="fill:none;stroke:#000000;stroke-width:2;stroke-linecap:round;stroke-linejoin:round;stroke-opacity:1" />
      </g>
      <g
         id="g4141">
        <path
           d="m 198.625,131.1875 c -0.8104,-0.002 -1.54198,0.0193 -2.1875,0.0937 -5.16419,0.59587 -7.94439,6.56409 -8.9375,14.90625 -0.99311,8.34216 10.93115,7.55826 12.71875,8.75 1.78761,1.19173 5.96398,10.30827 4.375,11.5 -1.58898,1.19174 -9.94757,5.96981 -15.90625,58.40625 -0.39725,-0.59587 1.99153,5.17267 4.375,9.34375 0.12577,0.2201 0.556,0.39301 1.15625,0.5625 3.23928,14.92745 11.5625,55.63459 11.5625,80.65625 0,30.98516 3.95074,163.67267 3.15625,179.5625 -0.79449,15.88983 -5.55297,120.75053 -2.375,146.96875 3.17796,26.21822 46.88348,3.99523 44.5,2.40625 3.17797,-256.62077 3.1875,-332.89407 3.1875,-339.25 0,-4.55784 9.28435,-48.08999 16.59375,-73 10.42238,-1.22967 17.82709,-2.63613 18.15625,-4.0625 1.19174,-5.1642 -1.5964,-25.82998 -3.78125,-35.5625 -2.18485,-9.73252 -12.11547,-20.07839 -8.9375,-21.46875 3.17796,-1.39036 2.98093,-15.07362 8.34375,-14.875 5.36282,0.19863 5.74841,-1.99365 9.125,-3.78125 3.37659,-1.78761 1.39671,-7.74205 -1.78125,-12.90625 -3.17797,-5.16419 -14.68644,-10.53443 -20.84375,-3.78125 -6.15731,6.75317 1.99099,13.91314 1.59375,14.90625 -0.39725,0.99312 -4.56515,7.14566 -6.75,10.125 -2.18485,2.97934 -4.56568,3.375 -9.53125,3.375 -4.96557,0 -35.1589,-1.79714 -37.34375,-3.1875 -2.18485,-1.39036 -7.35276,-9.12977 -7.75,-10.71875 -0.39725,-1.58899 0.9714,-4.35752 3.15625,-6.34375 2.18485,-1.98622 -0.18538,-5.9804 -0.78125,-8.5625 -0.52139,-2.25934 -9.42097,-4.04621 -15.09375,-4.0625 z"
           id="path2818"
           style="fill:url(#linearGradient4257);fill-opacity:1;stroke:#000000;stroke-width:1px;stroke-linecap:butt;stroke-linejoin:miter;stroke-opacity:1" />
        <path
           d="m 201.3125,170.125 c -2.07788,3.32395 -4.83893,9.766 -7.59375,22.5 0.39289,0.29262 0.89946,0.56359 1.625,0.78125 2.80896,0.84269 3.08256,0.85565 6.59375,-2.09375 3.51119,-2.9494 5.36168,-1.28231 7.1875,-2.125 1.82582,-0.84268 3.07794,-6.44211 2.9375,-10.09375 -0.14045,-3.65164 -5.20898,-7.86062 -9.84375,-8.84375 -0.31285,-0.0664 -0.61747,-0.10687 -0.90625,-0.125 z m 82.15625,17.21875 c -1.63407,0.48303 -2.03761,0.66012 -3,1.71875 -1.40448,1.54492 -3.29493,2.3069 -1.75,4.0625 1.54492,1.75559 1.0474,3.01793 1.46875,4.84375 0.42134,1.82582 0.43155,3.64853 1.90625,3.71875 1.01024,0.0481 3.21401,0.54599 4.875,0.25 -0.57332,-3.58506 -1.17612,-6.91236 -1.75,-9.46875 -0.38354,-1.7085 -1.00186,-3.43135 -1.75,-5.125 z m -41.84375,2.25 c -2.54232,0.0912 -5.08674,0.97861 -6.5,3.375 -1.61514,2.73872 -2.60778,3.394 -1.34375,6.0625 1.26403,2.66851 0.55726,5.1938 2.59375,4 3.37074,-2.52806 3.59837,-4.84339 7.25,-4.5625 3.65164,0.2809 4.0625,-4.0246 4.0625,-4.9375 0,-0.91291 -2.08957,-3.79705 -4.96875,-3.9375 -0.3599,-0.0176 -0.73056,-0.013 -1.09375,0 z m 43.1875,16.375 c -0.45759,-0.0175 -0.69874,0.33428 -1.09375,1.34375 -1.26403,3.23029 1.52877,5.04847 -0.4375,6.3125 -1.96626,1.26402 -3.07759,4.48597 -2.65625,5.75 0.42134,1.26403 1.81712,2.97124 5.46875,4.9375 0.89693,0.48297 2.01035,0.77827 3.1875,0.875 0.10529,-4.27368 -0.60587,-11.35259 -1.5625,-18.25 -1.58068,-0.4712 -2.3904,-0.94904 -2.90625,-0.96875 z M 191,210.375 c -0.12935,0.007 -0.27043,0.0467 -0.40625,0.0625 -0.58048,3.95294 -1.16963,8.22834 -1.71875,12.9375 1.58861,0.49569 3.10085,0.8933 4.25,0.9375 3.65164,0.14045 4.76651,-2.26758 5.46875,-3.8125 0.70224,-1.54493 -0.56534,-2.92383 -2.8125,-4.46875 -2.24717,-1.54493 -1.40838,-4.36062 -3.09375,-5.34375 -0.42134,-0.24579 -1.00062,-0.34981 -1.6875,-0.3125 z m 12.53125,73.65625 c 0.96464,7.81526 1.6958,15.87953 2.03125,23.53125 1.0454,-0.96128 3.6875,-2.46487 3.6875,-3.0625 0,-0.70224 3.6e-4,-5.20578 0.28125,-7.3125 0.2809,-2.10671 1.8283,-2.36203 1.96875,-4.46875 0.14045,-2.10671 -1.81321,-4.51757 -2.375,-6.0625 -0.41205,-1.13315 -2.73327,-2.62144 -5.59375,-2.625 z m 38.03125,25.125 c -1.39789,0.12316 -3.21454,1.00211 -2.96875,1.125 -6.17969,5.19656 -7.28338,4.06286 -8.96875,4.34375 -1.68537,0.2809 -2.25,-0.12074 -2.25,3.25 0,3.37074 1.12642,1.52112 2.25,5.875 1.12358,4.35387 0.8283,8.28444 0.96875,10.8125 0.0878,1.58004 1.6041,3.67946 3.6875,3.8125 1.25004,0.0798 2.7128,-0.56288 4.1875,-2.40625 3.93253,-4.91567 2.53409,-9.12926 4.78125,-12.5 2.24716,-3.37074 4.62323,-6.86204 3.21875,-8.96875 -1.40447,-2.10672 -2.93928,-5.2033 -4.34375,-5.34375 -0.17556,-0.0176 -0.3628,-0.0176 -0.5625,0 z M 208.625,327.0625 c -0.9065,0.0441 -1.84163,0.23883 -2.75,0.5 0.0631,4.41783 0.17386,9.96598 0.28125,15.53125 1.58044,-0.43973 3.24816,-0.97593 3.96875,-1.5 1.54492,-1.12358 3.64116,-2.5348 4.0625,-5.34375 0.42134,-2.80895 -0.002,-6.73632 -1.96875,-8.28125 -0.73735,-0.57934 -1.75499,-0.87004 -2.875,-0.90625 -0.23334,-0.008 -0.47797,-0.0117 -0.71875,0 z m 45.5,7.21875 c -4.69768,3.60582 -5.76458,2.77848 -7.28125,3.03125 -1.68537,0.2809 -2.25,-0.12074 -2.25,3.25 0,3.37074 1.12642,1.52112 2.25,5.875 1.12358,4.35387 0.8283,8.28444 0.96875,10.8125 0.0878,1.58004 1.6041,3.67946 3.6875,3.8125 0.76413,0.0488 1.59151,-0.18087 2.46875,-0.78125 0.0683,-10.24959 0.12128,-18.93301 0.15625,-26 z m -22.625,7.5625 c -2.54232,0.0912 -5.08674,0.97861 -6.5,3.375 -1.61514,2.73872 -2.60778,3.394 -1.34375,6.0625 1.26403,2.66851 0.55726,5.1938 2.59375,4 3.37074,-2.52806 3.59837,-4.84339 7.25,-4.5625 3.65164,0.2809 4.0625,-4.0246 4.0625,-4.9375 0,-0.91291 -2.08957,-3.79705 -4.96875,-3.9375 -0.3599,-0.0176 -0.73056,-0.013 -1.09375,0 z M 211.21875,354.25 c -0.98313,0.022 -2.00914,0.19979 -3.0625,0.65625 -0.48945,-0.0851 -1.09915,0.10978 -1.75,0.46875 0.15218,7.16869 0.3509,15.70022 0.53125,23.625 0.16681,0.019 0.33918,0.0575 0.5,0.0625 4.49432,0.14045 5.20366,0.0302 5.625,-0.8125 0.42134,-0.84269 4.0625,-2.82901 4.0625,-3.53125 0,-0.70224 3.6e-4,-5.20578 0.28125,-7.3125 0.2809,-2.10671 1.8283,-2.36203 1.96875,-4.46875 0.14045,-2.10671 -1.81321,-4.51757 -2.375,-6.0625 -0.42134,-1.15869 -2.83185,-2.69084 -5.78125,-2.625 z m 23.65625,6.3125 c -3.65987,0.22274 -5.95648,3.83569 -7.0625,5.1875 -1.26403,1.54493 0.26367,2.93731 -1.28125,15.15625 0.42134,0.42135 0.2848,2.09482 3.09375,2.9375 2.80896,0.84269 3.08256,0.85565 6.59375,-2.09375 3.51119,-2.9494 5.36168,-1.28231 7.1875,-2.125 1.82582,-0.84268 3.07794,-6.44211 2.9375,-10.09375 -0.14045,-3.65164 -5.20898,-7.86062 -9.84375,-8.84375 -0.57935,-0.12289 -1.10216,-0.15682 -1.625,-0.125 z m 9.71875,24.78125 c -0.64899,0.0115 -1.20752,0.15274 -1.59375,0.46875 -1.54493,1.26402 -3.2342,4.78302 -3.09375,6.1875 0.1404,1.40448 -1.13903,4.48668 0.125,6.3125 1.26402,1.82582 2.54669,3.09588 2.40625,4.78125 -0.14045,1.68537 -3.38797,5.91051 -1.28125,9.28125 1.7117,2.73873 0.5654,4.54361 2.78125,4.75 0.51135,0.0476 1.20823,0.007 2.15625,-0.125 3.25925,-0.45267 5.44579,-0.75727 7.46875,-0.90625 0.087,-9.91162 0.15263,-19.22747 0.21875,-27.59375 -1.52321,-0.25967 -2.70863,-0.60536 -3.34375,-1.125 -1.1587,-0.94802 -3.89679,-2.06581 -5.84375,-2.03125 z m -21.5625,5.28125 c -1.39789,0.12316 -3.21454,1.00211 -2.96875,1.125 -6.17969,5.19656 -7.28338,4.06286 -8.96875,4.34375 -1.68537,0.2809 -2.25,-0.12074 -2.25,3.25 0,3.37074 1.12642,1.52112 2.25,5.875 1.12358,4.35387 0.8283,8.28444 0.96875,10.8125 0.0878,1.58004 1.6041,3.67946 3.6875,3.8125 1.25004,0.0798 2.7128,-0.56288 4.1875,-2.40625 3.93253,-4.91567 2.53409,-9.12926 4.78125,-12.5 2.24716,-3.37074 4.62323,-6.86204 3.21875,-8.96875 -1.40447,-2.10672 -2.93928,-5.2033 -4.34375,-5.34375 -0.17556,-0.0176 -0.3628,-0.0176 -0.5625,0 z m 3.875,33.125 c -0.13628,-0.004 -0.29198,0.014 -0.4375,0.0312 -0.15523,0.0183 -0.33322,0.05 -0.5,0.0937 -2.66851,0.70224 -9.11027,2.25284 -9.8125,4.5 -0.70224,2.24716 -4.49716,4.6321 -2.25,10.25 2.24717,5.6179 3.51793,12.79705 5.34375,12.9375 1.82582,0.14045 4.89329,-1.12748 7,-3.09375 2.10672,-1.96626 6.46946,-4.64116 7.03125,-5.0625 0.56179,-0.42134 0.2809,-3.7809 0,-3.5 -3.08985,-6.1797 -0.12713,-8.44105 -1.8125,-11.25 -1.48128,-2.4688 -2.51825,-4.84683 -4.5625,-4.90625 z m 14.0625,1.40625 c -2.21585,0.20639 -1.06955,2.01127 -2.78125,4.75 -2.10672,3.37074 1.1408,7.59588 1.28125,9.28125 0.14044,1.68537 -1.14223,2.95543 -2.40625,4.78125 -1.26403,1.82582 0.0154,4.90802 -0.125,6.3125 -0.14045,1.40448 1.54882,4.92348 3.09375,6.1875 1.54492,1.26403 5.89257,-0.29847 7.4375,-1.5625 0.92821,-0.75945 3.04742,-1.12119 5.71875,-1.40625 0.0872,-9.01156 0.20832,-19.18417 0.28125,-27.21875 -3.01247,0.08 -5.53694,-0.33239 -10.34375,-1 -0.94802,-0.13167 -1.6449,-0.17263 -2.15625,-0.125 z m -12.8125,27.53125 c -1.83909,0.17548 -4.40663,1.37326 -6.25,3.09375 -2.10672,1.96626 -6.46946,4.64116 -7.03125,5.0625 -0.56179,0.42134 -0.2809,3.7809 0,3.5 3.08985,6.1797 0.12713,8.44105 1.8125,11.25 1.58003,2.63339 2.67161,5.15016 5,4.875 0.15523,-0.0183 0.33322,-0.05 0.5,-0.0937 2.66851,-0.70224 9.11027,-2.25284 9.8125,-4.5 0.70224,-2.24716 4.49716,-4.6321 2.25,-10.25 -2.24717,-5.6179 -3.51793,-12.79705 -5.34375,-12.9375 -0.22823,-0.0176 -0.48727,-0.0251 -0.75,0 z m 22.5625,15.25 c -2.11529,0.0113 -2.59025,0.24298 -2.90625,0.875 -0.42134,0.84269 -4.0625,2.82901 -4.0625,3.53125 0,0.70224 -3.6e-4,5.20578 -0.28125,7.3125 -0.2809,2.10671 -1.8283,2.36203 -1.96875,4.46875 -0.14045,2.10671 1.81321,4.51757 2.375,6.0625 0.42134,1.15869 2.83185,2.69084 5.78125,2.625 0.98313,-0.022 2.00914,-0.19979 3.0625,-0.65625 0.03,0.005 0.063,-0.003 0.0937,0 0.09,-8.62137 0.17104,-16.24875 0.25,-24.15625 -0.91397,-0.0288 -1.73585,-0.0657 -2.34375,-0.0625 z m -18.78125,16.46875 c -1.13757,0.0948 -2.42839,0.7933 -3.71875,2.40625 -3.93253,4.91567 -2.53409,9.12926 -4.78125,12.5 -2.24716,3.37074 -4.62323,6.86204 -3.21875,8.96875 1.40447,2.10672 2.93928,5.2033 4.34375,5.34375 1.40448,0.14045 3.81215,-0.98455 3.53125,-1.125 6.17969,-5.19656 7.28338,-4.06286 8.96875,-4.34375 1.68537,-0.2809 2.25,0.12074 2.25,-3.25 0,-3.37074 -1.12642,-1.52112 -2.25,-5.875 -1.12358,-4.35387 -0.8283,-8.28444 -0.96875,-10.8125 -0.0878,-1.58004 -1.6041,-3.67946 -3.6875,-3.8125 -0.15625,-0.01 -0.30624,-0.0135 -0.46875,0 z m -22.90625,3.8125 c -0.004,2.92777 -0.0258,5.39197 -0.0937,6.75 -0.13735,2.74694 -0.40554,8.80053 -0.71875,16 2.02837,-1.21978 3.40668,-3.29565 4.1875,-4.25 1.26403,-1.54493 -0.26367,-2.93731 1.28125,-15.15625 -0.42134,-0.42135 -0.2848,-2.09482 -3.09375,-2.9375 -0.62945,-0.18884 -1.11946,-0.32956 -1.5625,-0.40625 z m 7.09375,31.71875 c -1.07454,0.0497 -1.99301,0.71913 -4.1875,2.5625 -1.79071,1.50419 -3.13742,1.79575 -4.28125,1.84375 -0.21685,5.41938 -0.4367,11.06741 -0.65625,17.25 1.46109,0.92624 3.08631,1.63573 4.65625,1.96875 0.57935,0.12289 1.10216,0.15682 1.625,0.125 3.65987,-0.22274 5.95648,-3.83569 7.0625,-5.1875 1.26403,-1.54493 -0.26367,-2.93731 1.28125,-15.15625 -0.42134,-0.42135 -0.2848,-2.09482 -3.09375,-2.9375 -1.05336,-0.31601 -1.76153,-0.49857 -2.40625,-0.46875 z m 22.4375,5.1875 c -0.59492,-0.007 -1.06612,0.01 -1.46875,0.0312 -1.34209,0.0721 -1.73666,0.31706 -2,0.84375 -0.42134,0.84269 -4.0625,2.82901 -4.0625,3.53125 0,0.70224 -3.6e-4,5.20578 -0.28125,7.3125 -0.2809,2.10671 -1.8283,2.36203 -1.96875,4.46875 -0.14045,2.10671 1.81321,4.51757 2.375,6.0625 0.42134,1.15869 2.83185,2.69084 5.78125,2.625 0.98313,-0.022 2.00914,-0.19979 3.0625,-0.65625 3.23029,0.56179 10.82901,-9.84907 11.53125,-14.0625 0.70224,-4.21343 -6.31817,-9.95331 -10.8125,-10.09375 -0.84269,-0.0263 -1.56133,-0.0559 -2.15625,-0.0625 z m -15.75,23.53125 c -0.22003,-0.0141 -0.52441,0.0887 -0.90625,0.3125 -3.37074,2.52806 -3.59837,4.84339 -7.25,4.5625 -3.65164,-0.2809 -4.0625,4.0246 -4.0625,4.9375 0,0.91291 2.08957,3.79705 4.96875,3.9375 0.3599,0.0176 0.73056,0.013 1.09375,0 2.54232,-0.0912 5.08674,-0.97861 6.5,-3.375 1.61514,-2.73872 2.60778,-3.394 1.34375,-6.0625 -1.02702,-2.16816 -0.73403,-4.25145 -1.6875,-4.3125 z m 22.6875,11.625 c 0,0 -5.92383,1.25142 -7.46875,2.375 -1.54492,1.12358 -3.64116,2.5348 -4.0625,5.34375 -0.42134,2.80895 0.002,6.73632 1.96875,8.28125 0.73735,0.57934 1.75499,0.87004 2.875,0.90625 1.86669,0.0603 4.01969,-0.52249 5.6875,-1.3125 0,0.28089 5.6099,-2.11523 6.03125,-6.75 0.42134,-4.63477 -5.03125,-8.84375 -5.03125,-8.84375 z m -31.03125,10.1875 c -1.94696,-0.0346 -4.68505,1.08323 -5.84375,2.03125 -0.5257,0.43012 -1.4412,0.72643 -2.59375,0.96875 -0.23768,9.52024 -0.38803,18.92945 -0.46875,27.75 2.00624,0.15135 4.18006,0.45817 7.40625,0.90625 0.94802,0.13167 1.6449,0.17263 2.15625,0.125 2.21585,-0.20639 1.06955,-2.01127 2.78125,-4.75 2.10672,-3.37074 -1.1408,-7.59588 -1.28125,-9.28125 -0.14044,-1.68537 1.14223,-2.95543 2.40625,-4.78125 1.26403,-1.82582 -0.0154,-4.90802 0.125,-6.3125 0.14045,-1.40448 -1.54882,-4.92348 -3.09375,-6.1875 -0.38623,-0.31601 -0.94476,-0.45723 -1.59375,-0.46875 z m 22.625,10.78125 c -0.22003,-0.0141 -0.49316,0.0887 -0.875,0.3125 -3.37074,2.52806 -3.59837,4.84339 -7.25,4.5625 -3.65164,-0.2809 -4.0625,4.0246 -4.0625,4.9375 0,0.91291 2.08957,3.79705 4.96875,3.9375 0.3599,0.0176 0.73056,0.013 1.09375,0 2.54232,-0.0912 5.08674,-0.97861 6.5,-3.375 1.61514,-2.73872 2.60778,-3.394 1.34375,-6.0625 -1.02702,-2.16816 -0.76528,-4.25145 -1.71875,-4.3125 z m 14.5625,12.65625 c -1.75786,0.41059 -5.32158,1.29069 -6.46875,2.125 -1.54492,1.12358 -3.64116,2.5348 -4.0625,5.34375 -0.42134,2.80895 0.002,6.73632 1.96875,8.28125 0.73735,0.57934 1.75499,0.87004 2.875,0.90625 1.80295,0.0582 3.858,-0.50112 5.5,-1.25 0.0628,-5.22909 0.12756,-10.34348 0.1875,-15.40625 z M 229.75,602.0625 c -1.83909,0.17548 -4.40663,1.37326 -6.25,3.09375 -2.10672,1.96626 -6.46946,4.64116 -7.03125,5.0625 -0.56179,0.42134 -0.2809,3.7809 0,3.5 3.08985,6.1797 0.12713,8.44105 1.8125,11.25 1.58003,2.63339 2.67161,5.15016 5,4.875 0.15523,-0.0183 0.33322,-0.0499 0.5,-0.0937 2.66851,-0.70224 9.11027,-2.25284 9.8125,-4.5 0.70224,-2.24716 4.49716,-4.6321 2.25,-10.25 -2.24717,-5.6179 -3.51793,-12.79705 -5.34375,-12.9375 -0.22823,-0.0176 -0.48727,-0.0251 -0.75,0 z m 18.875,17.40625 c -1.13757,0.0948 -2.42839,0.7933 -3.71875,2.40625 -3.93253,4.91567 -2.53409,9.12926 -4.78125,12.5 -2.24716,3.37074 -4.62323,6.86204 -3.21875,8.96875 1.40447,2.10672 2.93928,5.2033 4.34375,5.34375 1.40448,0.14045 3.81215,-0.98455 3.53125,-1.125 3.2002,-2.69108 5.01786,-3.65984 6.28125,-4.03125 0.10373,-8.38174 0.18421,-15.03141 0.28125,-23.03125 -0.61054,-0.56358 -1.37681,-0.97549 -2.25,-1.03125 -0.15625,-0.01 -0.30624,-0.0135 -0.46875,0 z m -38.125,6.625 c -1.49852,-0.0266 -3.45749,0.6164 -4.8125,1.34375 0.16904,5.95683 0.44796,10.97691 0.875,14.5 0.71843,5.92708 3.51553,9.38422 7.375,11.15625 2.10672,-3.37074 -1.1408,-7.59588 -1.28125,-9.28125 -0.14044,-1.68537 1.14223,-2.95543 2.40625,-4.78125 1.26403,-1.82582 -0.0154,-4.90802 0.125,-6.3125 0.14045,-1.40448 -1.54882,-4.92348 -3.09375,-6.1875 -0.38623,-0.31601 -0.94476,-0.42598 -1.59375,-0.4375 z M 210,132.90625 c -1.39692,0.51278 -2.14381,0.32085 -3.03125,0.46875 -1.68537,0.2809 -2.25,-0.12074 -2.25,3.25 0,3.37074 1.12642,1.52112 2.25,5.875 1.12358,4.35387 0.8283,8.28444 0.96875,10.8125 0.0878,1.58004 1.6041,3.67946 3.6875,3.8125 0.76413,0.0488 1.59151,-0.18087 2.46875,-0.78125 0.004,-0.54203 -0.004,-0.84174 0,-1.375 -1.42044,-2.08855 -2.56966,-4.09115 -2.75,-4.8125 -0.3754,-1.5016 0.83324,-4.0461 2.8125,-6 0.0149,-2.45614 0.0502,-5.07558 0.0625,-7.28125 -0.20011,-0.57151 -0.38611,-1.13149 -0.5,-1.625 -0.20238,-0.87698 -1.67306,-1.68206 -3.71875,-2.34375 z m 62.09375,13.25 c -0.58656,0.0285 -1.18572,0.11812 -1.78125,0.25 1.16997,2.17547 2.57669,3.73014 2.40625,4.15625 -0.22163,0.55408 -1.64805,2.71096 -3.21875,5.03125 0.0429,2.2714 0.0794,4.23099 0.125,6.59375 1.58044,-0.43973 3.24816,-0.97593 3.96875,-1.5 1.54492,-1.12358 3.64116,-2.5348 4.0625,-5.34375 0.42134,-2.80895 -0.002,-6.73632 -1.96875,-8.28125 -0.73735,-0.57934 -1.75499,-0.87004 -2.875,-0.90625 -0.23334,-0.008 -0.47797,-0.0117 -0.71875,0 z"
           id="path2929"
           style="fill:#742e00;fill-opacity:1;stroke:#000000;stroke-width:1px;stroke-linecap:butt;stroke-linejoin:miter;stroke-opacity:1" />
      </g>
      <g
         id="g4075">
        <path
           d="m 241.3268,155.52171 c -5.36282,4.17109 -5.95869,4.56833 -11.12288,3.77384 -5.16419,-0.79449 -7.15042,-3.97246 -13.40704,-0.39725 -6.25663,3.57522 -5.1642,11.91738 -5.66076,13.80429 -0.49655,1.88692 0.19863,3.87315 1.39036,2.18486 1.19174,-1.6883 3.57522,-4.07177 2.48279,-2.5821 -1.09243,1.48967 -2.78072,2.88003 0.8938,8.93803 3.67453,6.058 0.39725,-6.058 3.37659,-3.17797 2.97934,2.88003 1.19174,10.52701 3.17797,11.42082 1.98623,0.8938 3.57521,-9.33528 6.25662,-6.75318 2.68141,2.5821 2.28416,4.3697 5.95868,-2.28416 3.67453,-6.65387 6.75318,5.2635 6.95181,5.85937 0.19862,0.59587 2.38347,-8.64009 3.4759,-7.24973 1.09242,1.39036 2.28416,10.92425 5.06488,-0.7945 2.78072,-11.71875 4.17108,8.14354 5.36282,2.68141 1.19173,-5.46213 0.39724,-10.22908 6.058,-5.46213 5.66075,4.76695 -0.49656,-3.37658 0.59586,-3.77383 1.09243,-0.39725 3.37659,0.19862 4.2704,-1.48967 0.8938,-1.6883 2.6814,-0.69518 -2.28417,-2.97935 -4.96557,-2.28416 -0.0993,-4.66763 -0.99311,-6.05799 -0.8938,-1.39036 -1.48967,-1.6883 -5.85938,-1.78761 -4.3697,-0.0993 -4.17108,-5.06488 -5.76006,-3.17797 -1.58898,1.88692 -5.06488,5.46213 -7.34905,3.67453 -2.28416,-1.78761 -2.97934,-4.36971 -2.88003,-4.36971 z"
           id="path2835"
           style="fill:#ff2f02;fill-opacity:1;stroke:#000000;stroke-width:1px;stroke-linecap:butt;stroke-linejoin:miter;stroke-opacity:1" />
        <g
           id="g4052">
          <g
             id="g4040">
            <path
               d="m 202.39672,221.66313 c 1.39036,-20.25953 2.78072,-25.82097 7.94491,-26.41684 5.1642,-0.59587 14.30085,0.59587 15.09534,9.13665 0.79449,8.54079 2.78072,16.4857 0.99312,17.67744 -1.78761,1.19174 -23.83475,0 -24.03337,-0.39725 z"
               id="path2837"
               style="fill:#ffffff;stroke:#000000;stroke-width:1px;stroke-linecap:butt;stroke-linejoin:miter;stroke-opacity:1" />
            <path
               d="m 250.66208,221.66313 c 0.19862,-9.73252 0.99311,-20.25953 4.56832,-23.4375 3.57521,-3.17796 11.12288,-5.16419 13.30774,-0.99311 2.18485,4.17108 3.77383,14.10222 3.77383,19.66367 0,5.56144 -1.19174,6.1573 -5.16419,6.35593 -3.97246,0.19862 -16.08846,-0.79449 -16.4857,-1.58899 z"
               id="path2839"
               style="fill:#ffffff;stroke:#000000;stroke-width:1px;stroke-linecap:butt;stroke-linejoin:miter;stroke-opacity:1" />
            <path
               d="m 215.7275,205.48471 a 2.387609,4.0729799 0 1 1 -4.77522,0 2.387609,4.0729799 0 1 1 4.77522,0 z"
               transform="matrix(1.9121143,0,0,1.9121143,-193.4439,-181.21712)"
               id="path2873"
               style="fill:#000000;fill-rule:evenodd;stroke:#000000;stroke-width:1px;stroke-linecap:butt;stroke-linejoin:miter;stroke-opacity:1" />
            <path
               d="m 215.7275,205.48471 a 2.387609,4.0729799 0 1 1 -4.77522,0 2.387609,4.0729799 0 1 1 4.77522,0 z"
               transform="matrix(1.9555483,0,0,1.9555483,-156.27479,-190.76917)"
               id="path2875"
               style="fill:#000000;fill-rule:evenodd;stroke:#000000;stroke-width:1px;stroke-linecap:butt;stroke-linejoin:miter;stroke-opacity:1" />
            <path
               d="m 255.96573,191.43995 c 3.65164,-4.07298 11.5167,-4.14321 12.64028,-1.89605 1.12358,2.24716 0.2809,1.96627 -2.6685,0.98314 -2.9494,-0.98314 -5.6179,1.40447 -6.53081,1.96626 -0.91291,0.56179 -4.84544,1.26403 -3.44097,-1.05335 z"
               id="path2857"
               style="fill:#000000;stroke:#000000;stroke-width:1px;stroke-linecap:butt;stroke-linejoin:miter;stroke-opacity:1" />
            <path
               d="m 206.21217,193.33599 c 1.89604,-3.61652 4.03786,-4.88055 5.68812,-3.89742 1.65026,0.98314 2.00138,2.66851 2.63339,2.42272 0.63202,-0.24578 1.65026,-1.08846 1.43959,-1.7907 -0.21067,-0.70224 -1.61514,-2.66851 -2.52805,-2.77384 -0.91291,-0.10534 -3.79209,-0.66713 -4.95078,0.49156 -1.15869,1.1587 -4.03787,4.56455 -4.10809,4.98589 -0.0702,0.42135 0.0351,1.58004 0.87779,1.19381 0.84269,-0.38623 0.94803,-0.56179 0.94803,-0.63202 z"
               id="path2859"
               style="fill:#000000;stroke:#000000;stroke-width:1px;stroke-linecap:butt;stroke-linejoin:miter;stroke-opacity:1" />
            <path
               d="m 215.7275,205.48471 a 2.387609,4.0729799 0 1 1 -4.77522,0 2.387609,4.0729799 0 1 1 4.77522,0 z"
               transform="matrix(0.64453649,0,0,0.399231,74.604684,124.44341)"
               id="path3781"
               style="fill:#ffffff;fill-rule:evenodd;stroke:none" />
            <path
               d="m 215.7275,205.48471 a 2.387609,4.0729799 0 1 1 -4.77522,0 2.387609,4.0729799 0 1 1 4.77522,0 z"
               transform="matrix(0.29025148,0,0,0.17978406,151.92576,171.22469)"
               id="path3783"
               style="fill:#ffffff;fill-rule:evenodd;stroke:none" />
            <path
               d="m 258.12434,205.63824 c -0.80576,0 -1.48133,0.68918 -1.48133,1.54059 0,0.85139 0.67557,1.54058 1.48133,1.54058 0.80576,0 1.45171,-0.68919 1.45171,-1.54058 0,-0.85141 -0.64595,-1.54059 -1.45171,-1.54059 z"
               id="path3792"
               style="fill:#ffffff;fill-rule:evenodd;stroke:none" />
            <path
               d="m 260.60607,208.77095 c -0.46227,0 -0.83035,0.37965 -0.83035,0.86809 0,0.48845 0.36808,0.90585 0.83035,0.90585 0.46227,0 0.83036,-0.4174 0.83036,-0.90585 0,-0.48844 -0.36809,-0.86809 -0.83036,-0.86809 z"
               id="path3785"
               style="fill:#ffffff;fill-rule:evenodd;stroke:none" />
          </g>
          <g
             id="g4013">
            <g
               id="g3999">
              <path
                 d="m 218.9375,293.625 c 7.30346,-0.0347 17.56643,1.3125 20.9375,1.3125 4.90338,0 12.18869,2.02299 11,2.46875 -1.1887,0.44577 -17.06776,23.67924 -19.59375,24.125 -2.52597,0.44576 -6.84522,-2.73498 -19.53125,-26.75 1.16084,-0.8358 3.86774,-1.14049 7.1875,-1.15625 z"
                 id="path2878"
                 style="fill:#000000;stroke:#803300;stroke-width:1px;stroke-linecap:butt;stroke-linejoin:miter;stroke-opacity:1" />
              <path
                 d="m 217.59375,291.8125 c -4.91359,0 -9.16916,0.4093 -11.03125,1.75 13.50635,35.55349 18.46717,35.56462 21.84375,34.96875 3.37659,-0.59586 27.03602,-30.59163 28.625,-31.1875 1.58898,-0.59587 -10.53919,-4.375 -17.09375,-4.375 -4.09659,0 -14.15444,-1.15625 -22.34375,-1.15625 z m 1.34375,1.8125 c 7.30346,-0.0347 17.56643,1.3125 20.9375,1.3125 4.90338,0 12.18869,2.02299 11,2.46875 -1.1887,0.44577 -17.06776,23.67924 -19.59375,24.125 -2.52597,0.44576 -6.84522,-2.73498 -19.53125,-26.75 1.16084,-0.8358 3.86774,-1.14049 7.1875,-1.15625 z"
                 id="path2823"
                 style="fill:#e5ac86;fill-opacity:1;stroke:#050505;stroke-width:1px;stroke-linecap:butt;stroke-linejoin:miter;stroke-opacity:1" />
              <path
                 d="m 223.41378,315.17167 c -1.82621,-9.33398 5.20809,-7.77832 6.62848,-5.74919 1.42039,2.02912 -0.81166,1.69093 3.65243,-0.54111 4.46408,-2.23203 8.92816,-1.62329 7.03431,1.21748 -1.89385,2.84078 -8.4547,10.48382 -10.07801,10.21327 -1.62329,-0.27054 -7.37249,-5.14045 -7.23721,-5.14045 z"
                 id="path2827"
                 style="fill:#ff2a2a;stroke:#000000;stroke-width:1.36213052px;stroke-linecap:butt;stroke-linejoin:miter;stroke-opacity:1" />
            </g>
            <g
               id="g4007">
              <path
                 d="m 308.61487,260.99045 c -1.78745,38.30803 -43.48767,36.92593 -72.25365,36.8988 -37.05249,0 -66.29497,-17.42111 -66.29497,-40.87126 -1.11065,-36.50356 32.9492,-39.60471 62.32251,-40.87124 40.41668,3.06729 78.07886,0.15396 76.22611,44.8437 z"
                 id="path2820"
                 style="fill:#e19e71;fill-opacity:1;fill-rule:evenodd;stroke:#000000;stroke-width:1.09013474px;stroke-linecap:butt;stroke-linejoin:miter;stroke-opacity:1" />
              <path
                 d="m 193.46655,246.21451 c -3.44097,5.96902 -4.21343,12.85095 -2.52806,14.81722 1.68538,1.96626 4.49433,1.26403 4.84545,0 0.35111,-1.26403 0.49156,-2.9494 -1.12358,-3.44097 -1.61515,-0.49157 -3.01963,1.96627 -2.31739,-2.9494 0.70224,-4.91566 2.31739,-5.6179 2.80895,-6.46059 0.49157,-0.84268 0,-2.87917 -1.68537,-1.96626 z"
                 id="path2855"
                 style="fill:#000000;stroke:#000000;stroke-width:1px;stroke-linecap:butt;stroke-linejoin:miter;stroke-opacity:1" />
              <path
                 d="m 285.03715,245.93361 c 3.44097,5.96902 4.21343,12.85095 2.52806,14.81722 -1.68538,1.96626 -4.49433,1.26403 -4.84545,0 -0.35111,-1.26403 -0.49156,-2.9494 1.12358,-3.44097 1.61515,-0.49157 3.01963,1.96627 2.31739,-2.9494 -0.70224,-4.91566 -2.31739,-5.6179 -2.80895,-6.46059 -0.49157,-0.84268 0,-2.87917 1.68537,-1.96626 z"
                 id="path2867"
                 style="fill:#000000;stroke:#000000;stroke-width:1px;stroke-linecap:butt;stroke-linejoin:miter;stroke-opacity:1" />
              <path
                 d="m 232.375,258.84375 c -20.87992,0.90031 -44.10645,2.71918 -55.40625,16.8125 10.77536,13.46255 33.12664,22.21875 59.40625,22.21875 23.25857,0.0219 54.9515,0.93338 67.1875,-18.96875 -11.43377,-18.85565 -40.51698,-17.73487 -71.1875,-20.0625 z"
                 id="path3799"
                 style="opacity:0.1966527;fill:#ffffff;fill-opacity:1;fill-rule:evenodd;stroke:none;filter:url(#filter3804)" />
            </g>
          </g>
        </g>
      </g>
    </g>
  </g>
</svg>
