<?xml version="1.0"?><svg width="1440" height="1440" xmlns="http://www.w3.org/2000/svg">
 <!-- Created with SVG-edit - http://svg-edit.googlecode.com/ -->
 <g>
  <title>Layer 1</title>
  <g id="svg_132">
   <path fill="#FFD54F" d="m788.438049,125.986847c-8.34082,-5.940559 -16.913818,-10.935257 -25.524353,-15.006104c38.01062,-17.494682 29.570313,-66.318783 29.570313,-66.318783c-34.541504,-9.78614 -56.18988,30.41444 -65.887756,54.716091c-2.074768,-0.349251 -4.128784,-0.62767 -6.1745,-0.861961l9.46936,-66.579531c0,0 3.440186,-0.64975 7.021179,-13.644779c3.958984,-14.39627 -17.91394,-20.840641 -30.694824,-9.94071c-12.78894,10.89978 6.166443,24.991051 6.166443,24.991051l-3.352783,64.46674c-8.639343,-0.053009 -16.835022,1.03437 -24.366577,3.22226l-8.174622,-64.272369c0,0 3.128662,-1.692883 3.128662,-15.253641c0,-15.01946 -22.661011,-14.4138 -32.039124,0c-9.37384,14.409502 12.502686,22.038462 12.502686,22.038462l13.552856,61.735229c-0.639221,0.313881 -1.278198,0.636551 -1.896423,0.967972c-10.589844,-21.110291 -32.977051,-53.518261 -68.041077,-45.323452c0,0 -5.457031,26.10947 11.585693,44.603001l-2.751282,13.485641l17.349609,11.3685l-20.017822,-2.842102l1.336243,21.322433l18.68158,0l-18.68158,8.530731l-1.336243,24.164459l20.017822,-4.26535l-18.68158,12.796188l0,22.741241l11.341003,-3.55368l-12.677246,13.50325l-1.33197,22.745743l12.00885,1.418747l-10.67688,5.684311l-1.33197,22.745636l10.672852,-1.423187l-10.672852,8.530701l-3.340393,25.587799l8.672485,2.842163l-8.004395,3.558105l-1.332153,35.537445l10.009033,-2.130463l-10.676941,9.949493l0,28.429932l5.336121,2.130493l-3.33606,3.553772l-4.008545,32.690857l8.008667,2.846588l-6.668335,2.130463c0,0 -3.30719,70.394073 -7.129089,122.758636c-13.220581,79.08844 -29.126099,152.116882 -47.500427,198.085632l-242.968048,13.202759c-2.506348,-0.419861 -4.975525,-0.720398 -7.427979,-0.963501c-0.746857,-0.075073 -1.481354,-0.119324 -2.224182,-0.181274c-1.755188,-0.132629 -3.497955,-0.229736 -5.220184,-0.278442c-0.763397,-0.022095 -1.526978,-0.044189 -2.282257,-0.048523c-1.96286,-0.013306 -3.904724,0.030884 -5.826019,0.132629c-0.406769,0.022095 -0.817596,0.022095 -1.215973,0.048523c-2.323761,0.154785 -4.614349,0.397766 -6.871796,0.716125c-0.531097,0.079407 -1.049774,0.181213 -1.580902,0.265137c-1.74707,0.278442 -3.473114,0.60553 -5.182953,0.981262c-0.639008,0.141418 -1.269653,0.287292 -1.896271,0.441956c-1.738678,0.424438 -3.456635,0.901733 -5.145477,1.427673c-0.43158,0.13269 -0.867188,0.256531 -1.294708,0.393372c-2.157898,0.70282 -4.273956,1.485168 -6.348785,2.360413c-0.137024,0.057312 -0.261627,0.128174 -0.398376,0.181152c-1.904877,0.813293 -3.771973,1.697388 -5.610229,2.647644c-0.43158,0.220947 -0.863159,0.455322 -1.294769,0.689575c-1.630798,0.875183 -3.228424,1.803345 -4.796936,2.780273c-0.33609,0.207703 -0.672211,0.41095 -1.008545,0.623169c-3.825928,2.466492 -7.469238,5.242249 -10.917542,8.309692c-0.21579,0.190125 -0.423218,0.389099 -0.634705,0.583435c-1.527222,1.383545 -3.012695,2.824463 -4.460876,4.327271c-0.224152,0.234314 -0.452332,0.464172 -0.676483,0.702759c-3.286469,3.47876 -6.37384,7.244629 -9.228729,11.302185c-0.016724,0.017639 -0.029144,0.039734 -0.045593,0.06189c-1.377808,1.958069 -2.68898,3.991272 -3.962952,6.077637c-0.153503,0.256287 -0.306976,0.508301 -0.45639,0.764709c-1.253204,2.095154 -2.460785,4.23877 -3.606079,6.457764c-0.012421,0.026367 -0.029129,0.044006 -0.037262,0.070618c-44.077179,72.506836 -83.461258,150.012878 -163.822475,183.875122l-0.701309,-1.701782l-29.9312,-8.641357l-0.829969,13.870239l10.324379,2.139343l-13.818269,5.282043l0.34015,4.278748l1.95045,5.622192l13.394799,-4.424438l-13.8431,6.528442l11.21236,12.531006l11.536039,-13.949829l-5.299219,8.968262l11.847059,7.642334l9.253799,-20.323608c0.43158,-0.16333 0.842392,-0.287231 1.290421,-0.521362c67.356461,-29.40686 100.84816,-71.070618 138.750595,-131.850952c0.912781,0.101807 1.850662,0.287292 1.888123,6.31189c0,48.006409 20.90155,90.788391 53.509079,118.665771c-4.693161,124.186279 -15.772537,385.810669 -16.133469,394.279541l-0.012634,0l-0.668106,14.210571l59.389267,-0.234253l-2.672272,-13.967651l-0.062317,0c-17.154388,-51.206543 -10.78891,-262.525757 -6.108154,-372.784424c9.681061,4.358276 19.913971,7.566895 30.545349,9.569336c7.016907,124.296997 10.589813,361.005249 10.705811,368.903687l0,0l0,0.009033c0,0.132446 0,0.203247 0,0.203247l0.012421,0l0.937866,12.818237l49.37616,-3.792358c0,0 -1.779999,-14.458008 -2.672302,-14.926758l-0.082794,0.009033c-20.138153,-46.583252 -26.0513,-247.099854 -27.78595,-360.850708l240.063477,0c7.39856,0 14.40741,-0.600952 21.034241,-1.759033c-4.373779,124.336548 -14.038147,371.542725 -14.353455,379.662109l-0.012695,0l-2.331848,13.857056l55.716858,-1.639648l-2.672546,-12.217407l-0.057983,0c-16.847473,-54.49939 -8.622925,-293.965576 -4.485779,-390.920288c6.672485,-3.787964 12.780884,-8.318359 18.304016,-13.542969c6.730713,114.400513 10.158264,384.497925 10.266174,393.095093l0,0l-1.004272,14.564209l45.043945,-0.711914l-4.004211,-19.545532l-0.070618,0.009033c-21.129822,-58.181519 -23.611328,-356.518799 -23.910217,-425.949402c10.818237,-24.659729 15.976135,-54.64093 15.976135,-87.004822c-0.008301,-0.061829 -0.016724,-0.123718 -0.025024,-0.190063l0.025024,0.013367c-0.037476,-0.185791 -0.070679,-0.380127 -0.10376,-0.574646c-1.464661,-10.61261 -3.025146,-20.566711 -4.726379,-29.88855c-22.316528,-172.586243 11.091797,-491.821747 22.951538,-594.247986c51.293152,33.451111 109.350525,32.23114 131.936829,-3.761536c23.445374,-37.358475 -0.22821,-98.041672 -52.88269,-135.53717l0,-0.000031l0,0.000023l0,-0.000023z" id="svg_2"/>
   <g id="svg_3">
    <g id="svg_4">
     <path fill="#3C2517" d="m603.18689,429.619446c0,0 -3.30719,70.394104 -7.128784,122.758789c28.536865,-170.707703 44.562439,-369.695099 45.857117,-386.102448c-1.340271,-14.838165 1.381897,-28.818848 8.722717,-40.514351c0.684631,-1.082878 1.398315,-2.130455 2.145264,-3.155876c-18.362,-2.360443 -30.063965,-8.994858 -37.508362,-17.070343l-2.751343,13.485641l17.349731,11.368378l-20.0177,-2.84211l1.335999,21.326912l18.681702,0l-18.681702,8.526245l-1.335999,24.164612l20.0177,-4.265381l-18.681702,12.796082l0,22.741379l11.341125,-3.553802l-12.677124,13.503265l-1.332153,22.745697l12.009094,1.418915l-10.676941,5.684265l-1.332153,22.745697l10.672852,-1.423401l-10.672852,8.530884l-3.340454,25.587799l8.672852,2.84201l-8.004639,3.553802l-1.33197,35.537445l10.008728,-2.130585l-10.676941,9.949615l0,28.429932l5.336487,2.130463l-3.336304,3.553833l-4.008545,32.690826l8.008667,2.846466l-6.664368,2.139343z" id="svg_5"/>
    </g>
    <g id="svg_6">
     <path fill="#3C2517" d="m490.952393,837.030945c-27.20874,32.633423 -32.370972,75.057251 -11.535767,94.766479s59.783386,9.224731 86.984009,-23.404358c27.213318,-32.633423 32.375244,-75.066101 11.5401,-94.775269c-20.835205,-19.700195 -59.779297,-9.229065 -86.988342,23.413147z" id="svg_7"/>
    </g>
    <g id="svg_8">
     <path fill="#3C2517" d="m675.323914,985.01947c-0.012451,-2.855408 -0.024902,-5.489807 -0.037537,-7.836853c10.818237,-24.659485 15.976135,-54.64093 15.976135,-87.0047c-0.008301,-0.06189 -0.016418,-0.123657 -0.02478,-0.190002l0.02478,0.013123c-0.03717,-0.185547 -0.070679,-0.380127 -0.103577,-0.574463c-1.464844,-10.612549 -3.025085,-20.56665 -4.726563,-29.888672c-0.311279,-2.41333 -0.605835,-4.866455 -0.900391,-7.332886c-2.220154,-0.198853 -4.464905,-0.251953 -6.726624,0.0177c-25.636169,3.049866 -43.23053,35.886658 -39.292664,73.337891c2.995972,28.5625 17.656616,51.502808 35.811218,59.458862z" id="svg_9"/>
    </g>
    <g id="svg_10">
     <path fill="#3C2517" d="m679.676819,657.408081c0.692993,-27.691895 1.829895,-55.794617 3.278198,-83.680969c-2.510498,-0.623108 -5.091614,-0.853027 -7.705811,-0.539185c-16.316345,1.944763 -27.565918,22.37439 -25.121826,45.628479c2.224182,21.136719 14.988342,37.274414 29.549438,38.591675z" id="svg_11"/>
    </g>
    <g id="svg_12">
     <path fill="#3C2517" d="m601.763733,708.592407c22.191956,-26.617676 25.881165,-61.721863 8.241028,-78.412048c-7.058472,-6.674377 -16.473816,-9.326477 -26.63208,-8.482178c-8.80957,43.692505 -18.540588,83.000061 -29.159485,113.534058c15.756042,-0.57019 33.636841,-9.954041 47.550537,-26.639832z" id="svg_13"/>
    </g>
    <g id="svg_14">
     <path fill="#3C2517" d="m378.98764,820.530884c36.114044,0 65.389496,-17.821838 65.389496,-39.79834c0,-8.977234 -4.937744,-17.225098 -13.170624,-23.886047l-110.587219,6.011169c-4.456573,5.379333 -7.025238,11.434753 -7.025238,17.874878c0,21.976501 29.275452,39.79834 65.393585,39.79834z" id="svg_15"/>
    </g>
    <g id="svg_16">
     <path fill="#3C2517" d="m432.932587,964.001953c-25.337372,-26.2995 -60.47226,-31.665344 -78.473083,-11.978455c-18.005371,19.678223 -12.054779,56.948303 13.282837,83.247986c2.464844,2.554688 5.041656,4.852905 7.668335,7.010132l74.55191,0c13.154175,-20.522461 6.323975,-54.044189 -17.029999,-78.279663z" id="svg_17"/>
    </g>
    <g id="svg_18">
     <path fill="#3C2517" d="m240.631409,1006.704346c21.930573,-7.452148 36.226013,-37.645874 32.640686,-71.746643c-3.933807,-37.446899 -27.906036,-65.324341 -53.542236,-62.27002c-12.461243,1.480652 -22.989014,10.042419 -30.101379,22.701599c1.419312,44.695801 20.934967,84.45874 51.00293,111.315063z" id="svg_19"/>
    </g>
    <g id="svg_20">
     <path fill="#3C2517" d="m622.897583,358.385529c-3.348755,28.880768 -7.112427,59.383698 -11.295166,90.328644c4.655884,4.928345 9.934021,7.518524 15.26239,6.88208c14.037842,-1.675201 23.10907,-24.969055 20.262268,-52.028656c-2.406616,-22.944763 -12.623047,-41.177551 -24.229492,-45.182068z" id="svg_21"/>
    </g>
    <g id="svg_22">
     <path fill="#3C2517" d="m771.930969,281.020905c-1.311462,-0.0177 -12.245728,-0.251984 -23.984863,-6.236786l0,0c-12.10437,-6.112946 -25.067871,-18.838318 -28.009888,-43.091278l0,0c-0.194946,-1.555847 0.830017,-2.983505 2.290588,-3.18692l0,0c1.460938,-0.203262 2.801208,0.892944 2.996277,2.444336l0,0c2.825684,22.339111 14.104431,33.0401 25.034363,38.706665l0,0c10.925964,5.608978 21.511719,5.688599 21.768738,5.675385l0,0c0.16217,0.004333 0.265747,0.013214 0.348755,0.026428l0,0l0,0c1.460632,0.194489 2.502136,1.617737 2.315491,3.173706l0,0c-0.169983,1.436432 -1.319641,2.488464 -2.643494,2.488464l0,0c-0.03717,0 -0.082764,0 -0.115967,0l0,0z" id="svg_23"/>
    </g>
    <g id="svg_24">
     <path fill="#3C2517" d="m7.1659,1009.365112l13.81828,-5.286194l-10.324121,-2.135071l0.82971,-13.874451l29.931201,8.636597l7.170639,17.269348l-10.286911,22.58667l-11.847059,-7.642334l5.298971,-8.963989l-11.536041,13.949829l-11.21211,-12.531128l13.843101,-6.532715l-13.395061,4.424438l-1.95019,-5.622314l-0.34041,-4.278687zm740.730584,-872.74353c1.348389,6.904221 6.008606,11.722076 10.398804,10.745209c4.390259,-0.981339 6.855103,-7.36824 5.510742,-14.276901c-1.352722,-6.908508 -6.004578,-11.717621 -10.402893,-10.745186c-4.394836,0.976875 -6.85968,7.372688 -5.506653,14.276878zm-35.919006,7.178162c2.987549,6.497528 8.838623,9.976212 13.067017,7.774933c4.228333,-2.210037 5.236877,-9.264511 2.249023,-15.753113c-2.991882,-6.506439 -8.838684,-9.980537 -13.062988,-7.783844c-4.228333,2.214493 -5.240906,9.260071 -2.253052,15.762024zm122.757935,81.461929c0.829651,4.252151 3.825928,7.182648 6.684814,6.550552c2.86322,-0.636383 4.510803,-4.596802 3.684875,-8.844589c-0.833984,-4.252014 -3.825928,-7.182648 -6.693176,-6.550552c-2.859192,0.636551 -4.50647,4.596924 -3.676514,8.844589zm-22.993103,5.507446c1.817444,3.951584 5.187012,6.17038 7.523193,4.954941c2.340515,-1.21994 2.763733,-5.414673 0.950317,-9.366104c-1.817566,-3.956055 -5.187012,-6.170563 -7.523193,-4.959396c-2.336243,1.22876 -2.763733,5.414673 -0.950317,9.37056zm-152.510559,1178.042892l-1.004272,14.568726l45.043945,-0.71167l-4.004211,-19.545654l-40.035461,5.688599zm-74.734558,11.373047l-2.336182,13.856689l55.716858,-1.639893l-2.672241,-12.216797l-50.708435,0l0,0zm-266.521301,-11.373047l0.95459,13.034546l49.37616,-3.792236c0,0 -1.780273,-14.453613 -2.668243,-14.926514l-47.662506,5.684204zm-35.07666,-5.688843l-56.048615,0l-0.668121,14.206055l59.389282,-0.229858l-2.672546,-13.976196z" id="svg_25"/>
    </g>
   </g>
  </g>
  <g id="svg_26">
   <path fill="#ff7f00" d="m294.355927,239.050674c9.859985,-5.409241 19.994415,-9.95723 30.173309,-13.664001c-44.933685,-15.929993 -34.956116,-60.38739 -34.956116,-60.38739c40.832733,-8.910889 66.424103,27.69426 77.888153,49.822418c2.452728,-0.318008 4.88092,-0.571518 7.299164,-0.784866l-11.194061,-60.624802c0,0 -4.066772,-0.59166 -8.299896,-12.424438c-4.680054,-13.108704 21.176544,-18.976692 36.2854,-9.051636c15.118103,9.924927 -7.289642,22.75592 -7.289642,22.75592l3.96344,58.700989c10.212952,-0.048279 19.901215,0.941833 28.804596,2.934067l9.663574,-58.524002c0,0 -3.698486,-1.541473 -3.698486,-13.889389c0,-13.676147 26.788208,-13.124664 37.874481,0c11.081085,13.120743 -14.779877,20.067398 -14.779877,20.067398l-16.021301,56.21376c0.755737,0.285812 1.511017,0.579636 2.24176,0.881409c12.518616,-19.222229 38.983337,-48.73172 80.433838,-41.269821c0,0 6.450928,23.774277 -13.695862,40.6138l3.252441,12.279526l-20.509583,10.351715l23.663757,-2.587906l-1.579681,19.415421l-22.084076,0l22.084076,7.767731l1.579681,22.003265l-23.663757,-3.883881l22.084076,11.651733l0,20.707336l-13.406525,-3.23587l14.986206,12.295593l1.574524,20.711395l-14.196167,1.29187l12.621643,5.175903l1.574524,20.711304l-12.61676,-1.295898l12.61676,7.767731l3.948853,23.299286l-10.252197,2.587982l9.46228,3.239868l1.574951,32.35907l-11.832031,-1.939911l12.62146,9.059631l0,25.887207l-6.307922,1.939941l3.943542,3.235931l4.738647,29.76709l-9.467194,2.59198l7.882721,1.939941c0,0 3.909607,64.098145 8.427612,111.779358c15.62854,72.014954 34.430969,138.511902 56.151978,180.369324l287.220947,12.021912c2.962891,-0.382263 5.881714,-0.655945 8.780884,-0.877319c0.882874,-0.068359 1.75116,-0.108643 2.629272,-0.165039c2.07489,-0.120789 4.135132,-0.209167 6.170959,-0.25354c0.902466,-0.020142 1.805115,-0.040222 2.697937,-0.044189c2.320374,-0.012085 4.615967,0.028137 6.887146,0.120789c0.480835,0.020081 0.966553,0.020081 1.437439,0.044189c2.746948,0.14093 5.454773,0.362183 8.123413,0.652039c0.627808,0.072327 1.240967,0.165039 1.868835,0.241455c2.065308,0.25354 4.105591,0.551331 6.127014,0.893494c0.755249,0.128784 1.500732,0.261597 2.241577,0.402405c2.055359,0.386475 4.086121,0.821106 6.082703,1.299988c0.510132,0.12085 1.025146,0.233582 1.530457,0.358215c2.550903,0.639954 5.052368,1.352295 7.505127,2.149292c0.162048,0.052185 0.309204,0.116699 0.470825,0.164978c2.251892,0.74054 4.458984,1.545532 6.632202,2.410828c0.510132,0.201172 1.020264,0.414612 1.530518,0.627869c1.927856,0.796936 3.816528,1.64209 5.670654,2.531616c0.397278,0.189148 0.794678,0.374207 1.192261,0.567444c4.522766,2.245911 8.829651,4.773376 12.905945,7.566528c0.255127,0.173096 0.500305,0.354248 0.750366,0.53125c1.805359,1.259766 3.561401,2.571838 5.273254,3.940247c0.264954,0.213318 0.53479,0.422607 0.799744,0.639893c3.885071,3.167603 7.534668,6.59668 10.909668,10.291321c0.019775,0.016052 0.034363,0.036194 0.053833,0.056396c1.628723,1.782898 3.178833,3.634277 4.684814,5.534058c0.181396,0.233337 0.362732,0.46283 0.539368,0.696289c1.481567,1.907776 2.909058,3.85968 4.263062,5.880188c0.014526,0.024048 0.034302,0.0401 0.044006,0.064331c52.105164,66.021973 98.662415,136.596069 193.660217,167.429749l0.828979,-1.549561l35.382813,-7.86853l0.981079,12.629761l-12.204834,1.947998l16.335083,4.80957l-0.4021,3.896118l-2.305664,5.119385l-15.834473,-4.028809l16.36438,5.94458l-13.254395,11.410278l-13.637207,-12.702148l6.264282,8.166138l-14.004761,6.958862l-10.939209,-18.505981c-0.510254,-0.148682 -0.99585,-0.261475 -1.525391,-0.474731c-79.624512,-26.776733 -119.216187,-64.714233 -164.021973,-120.058472c-1.078979,0.092651 -2.187866,0.261597 -2.231995,5.747314c0,43.71283 -24.708496,82.668457 -63.255005,108.052612c5.548035,113.079346 18.645325,351.304688 19.071838,359.016113l0.015015,0l0.789795,12.939575l-70.206177,-0.213257l3.159119,-12.718506l0.073608,0c20.278809,-46.626709 12.753967,-239.046021 7.220642,-339.443359c-11.444275,3.968506 -23.540955,6.890137 -36.108765,8.713501c-8.294861,113.180054 -12.518494,328.717773 -12.655762,335.90979l0,0l0,0.008179c0,0.120605 0,0.185059 0,0.185059l-0.014526,0l-1.108704,11.671753l-58.369324,-3.453125c0,0 2.104187,-13.164917 3.159058,-13.591797l0.097839,0.008301c23.806091,-42.416992 30.796143,-224.999878 32.84668,-328.577026l-283.787415,0c-8.745972,0 -17.031433,-0.547241 -24.865234,-1.601807c5.17041,113.216187 16.59491,338.312866 16.967773,345.706055l0.015015,0l2.75647,12.617676l-65.864746,-1.49292l3.159241,-11.124756l0.068542,0c19.915924,-49.625122 10.193481,-267.67395 5.302856,-355.957275c-7.887878,-3.449219 -15.108856,-7.574341 -21.637878,-12.331665c-7.956604,104.168701 -12.008484,350.109253 -12.136078,357.9375l0,0l1.187347,13.261597l-53.248016,-0.648193l4.733429,-17.797485l0.083405,0.008301c24.978394,-52.977905 27.911804,-324.632568 28.265198,-387.853516c-12.788635,-22.454224 -18.886017,-49.753967 -18.886017,-79.223267c0.009796,-0.056335 0.019897,-0.112671 0.029724,-0.173096l-0.029724,0.012146c0.044434,-0.169128 0.083679,-0.34613 0.12265,-0.523193c1.731506,-9.663452 3.576141,-18.727295 5.58728,-27.215393c26.381165,-157.150574 -13.112,-447.834381 -27.131805,-541.099854c-60.635498,30.45932 -129.267151,29.34845 -155.967041,-3.42511c-27.715698,-34.017242 0.269684,-89.273071 62.514313,-123.415054l0,-0.000031z" id="svg_27"/>
   <g id="svg_28">
    <g id="svg_29">
     <path fill="#3C2517" d="m513.347839,519.5271c0,0 3.909485,64.098206 8.427185,111.779541c-33.734406,-155.440033 -52.678711,-336.630493 -54.209198,-351.570374c1.58429,-13.511078 -1.633667,-26.241364 -10.311523,-36.890823c-0.809387,-0.986038 -1.652985,-1.939926 -2.53598,-2.873642c21.706299,-2.149323 35.539673,-8.190384 44.340027,-15.54361l3.252319,12.27951l-20.509583,10.351624l23.663452,-2.587921l-1.579224,19.419464l-22.084229,0l22.084229,7.763702l1.579224,22.003387l-23.663452,-3.883911l22.084229,11.651642l0,20.707458l-13.406677,-3.235962l14.985901,12.295563l1.574951,20.711365l-14.196472,1.292023l12.621521,5.175873l1.574951,20.711365l-12.61676,-1.296082l12.61676,7.767883l3.94873,23.299286l-10.252502,2.58783l9.462585,3.235962l1.574646,32.35907l-11.831757,-1.940033l12.621674,9.059753l0,25.887207l-6.308411,1.939941l3.943848,3.235962l4.738586,29.767029l-9.467163,2.591919l7.878113,1.947998z" id="svg_30"/>
    </g>
    <g id="svg_31">
     <path fill="#3C2517" d="m646.02417,890.500671c32.164429,29.714722 38.266846,68.344299 13.636841,86.290771s-70.672119,8.399719 -102.826843,-21.311157c-32.169739,-29.714722 -38.271912,-68.352356 -13.642029,-86.298767c24.630005,-17.938232 70.667175,-8.403625 102.832031,21.319153z" id="svg_32"/>
    </g>
    <g id="svg_33">
     <path fill="#3C2517" d="m428.072235,1025.253418c0.014709,-2.599976 0.029449,-4.998779 0.044312,-7.135986c-12.788635,-22.453918 -18.886017,-49.753906 -18.886017,-79.223145c0.009796,-0.056335 0.01947,-0.11261 0.029419,-0.173035l-0.029419,0.011963c0.044006,-0.168945 0.083679,-0.34613 0.122498,-0.523071c1.731659,-9.663391 3.575989,-18.727234 5.587433,-27.215515c0.367981,-2.197449 0.716187,-4.431213 1.064392,-6.677063c2.624451,-0.18103 5.278198,-0.22937 7.951843,0.016174c30.305328,2.777039 51.104248,32.677002 46.449158,66.778687c-3.541656,26.007935 -20.872498,46.896484 -42.333618,54.140991z" id="svg_34"/>
    </g>
    <g id="svg_35">
     <path fill="#3C2517" d="m422.926361,726.942871c-0.819061,-25.21521 -2.163086,-50.804504 -3.875122,-76.196777c2.967743,-0.567383 6.01889,-0.776733 9.109314,-0.490967c19.288055,1.770813 32.586639,20.373291 29.697388,41.547607c-2.629364,19.246277 -17.718323,33.940674 -34.93158,35.140137z" id="svg_36"/>
    </g>
    <g id="svg_37">
     <path fill="#3C2517" d="m515.030151,773.549377c-26.233826,-24.237061 -30.594971,-56.201599 -9.741943,-71.399048c8.344055,-6.077454 19.474365,-8.492371 31.482727,-7.723572c10.414124,39.784729 21.917419,75.576721 34.470337,103.379822c-18.625671,-0.519165 -39.763123,-9.063782 -56.211121,-24.257202z" id="svg_38"/>
    </g>
    <g id="svg_39">
     <path fill="#3C2517" d="m778.381592,875.476318c-42.69165,0 -77.299133,-16.227905 -77.299133,-36.238892c0,-8.174316 5.837097,-15.684509 15.569336,-21.749695l130.729126,5.473511c5.268188,4.898254 8.304626,10.412048 8.304626,16.276184c0,20.010986 -34.607422,36.238892 -77.303955,36.238892z" id="svg_40"/>
    </g>
    <g id="svg_41">
     <path fill="#3C2517" d="m714.611389,1006.115662c29.952209,-23.947327 71.486389,-28.833252 92.765808,-10.907104c21.28479,17.918274 14.250427,51.854919 -15.702087,75.802429c-2.913757,2.326294 -5.960022,4.418945 -9.065002,6.383179l-88.130371,0c-15.550171,-18.687012 -7.47583,-49.210571 20.131653,-71.278503z" id="svg_42"/>
    </g>
    <g id="svg_43">
     <path fill="#3C2517" d="m941.937256,1044.998901c-25.924866,-6.785645 -42.823975,-34.278931 -38.585632,-65.329834c4.65033,-34.097717 32.988708,-59.481873 63.294128,-56.700745c14.730835,1.348267 27.176147,9.144287 35.583862,20.671265c-1.677673,40.698303 -24.747925,76.904968 -60.292358,101.359314z" id="svg_44"/>
    </g>
    <g id="svg_45">
     <path fill="#3C2517" d="m490.04715,454.664154c3.95871,26.29776 8.407867,54.072601 13.352417,82.249847c-5.503876,4.48761 -11.743439,6.84613 -18.042267,6.266602c-16.594635,-1.525391 -27.317963,-22.735901 -23.952667,-47.375336c2.84494,-20.892639 14.92215,-37.494751 28.642517,-41.141113z" id="svg_46"/>
    </g>
    <g id="svg_47">
     <path fill="#3C2517" d="m313.869537,384.218842c1.550385,-0.016113 14.476227,-0.229431 28.353333,-5.678955l0,0c14.309143,-5.566223 29.633606,-17.153473 33.111603,-39.237305l0,0c0.230316,-1.416687 -0.981262,-2.716675 -2.707855,-2.901886l0,0c-1.72702,-0.18512 -3.31134,0.81308 -3.541931,2.225708l0,0c-3.340332,20.341156 -16.673401,30.085083 -29.594055,35.244843l0,0c-12.916046,5.10733 -25.429749,5.17981 -25.733673,5.167786l0,0c-0.19162,0.003937 -0.313995,0.012024 -0.412109,0.024048l0,0l0,0c-1.726746,0.177124 -2.957947,1.473053 -2.737305,2.889862l0,0c0.201019,1.307983 1.560059,2.2659 3.124878,2.2659l0,0c0.044037,0 0.097839,0 0.137115,0l0,0z" id="svg_48"/>
    </g>
    <g id="svg_49">
     <path fill="#3C2517" d="m1217.925049,1047.421631l-16.335083,-4.813354l12.20459,-1.944092l-0.980835,-12.633545l-35.382813,7.864136l-8.476685,15.724731l12.160522,20.56665l14.004883,-6.958862l-6.26416,-8.162231l13.637207,12.702148l13.25415,-11.4104l-16.36438,-5.948364l15.834839,4.028687l2.30542,-5.119507l0.402344,-3.895996zm-875.643433,-794.687378c-1.593964,6.286713 -7.103058,10.673676 -12.292786,9.78418c-5.18988,-0.893555 -8.103638,-6.709229 -6.514435,-13c1.599182,-6.290634 7.098297,-10.669632 12.297546,-9.78418c5.195374,0.889526 8.109161,6.713318 6.509674,13zm42.461182,6.536163c-3.531677,5.916382 -10.448425,9.083954 -15.447113,7.079559c-4.998383,-2.01236 -6.190613,-8.435913 -2.65863,-14.344208c3.536865,-5.9245 10.448578,-9.087891 15.4422,-7.087662c4.998535,2.016434 6.195526,8.43187 2.663544,14.35231zm-145.116577,74.176178c-0.980682,3.871826 -4.522766,6.540253 -7.902344,5.964661c-3.384644,-0.579468 -5.332306,-4.185669 -4.355957,-8.053528c0.985901,-3.871735 4.522766,-6.540253 7.91217,-5.964722c3.380035,0.579651 5.327393,4.185791 4.34613,8.053589zm27.18103,5.014862c-2.148376,3.598145 -6.131744,5.61853 -8.893433,4.51178c-2.766876,-1.11084 -3.267029,-4.93042 -1.123413,-8.528412c2.14856,-3.602234 6.131775,-5.618683 8.893433,-4.515869c2.761841,1.118866 3.267181,4.93042 1.123413,8.532501zm180.287964,1072.681366l1.187347,13.265747l-53.248016,-0.647949l4.733429,-17.797607l47.32724,5.17981zm88.346436,10.355835l2.761658,12.617432l-65.864777,-1.493164l3.158813,-11.124268l59.944305,0l0,0zm315.064026,-10.355835l-1.128418,11.868774l-58.369202,-3.453003c0,0 2.104492,-13.161011 3.154114,-13.591553l56.343506,5.175781zm41.465393,-5.180054l66.257141,0l0.789673,12.935547l-70.206055,-0.209351l3.159241,-12.726196z" id="svg_50"/>
    </g>
   </g>
  </g>
 </g>
</svg>